<?xml version="1.0" encoding="utf-8"?>
<!-- Generator: Adobe Illustrator 19.2.1, SVG Export Plug-In . SVG Version: 6.00 Build 0)  -->
<svg version="1.1" id="illustration" xmlns="http://www.w3.org/2000/svg" xmlns:xlink="http://www.w3.org/1999/xlink" x="0px"
	 y="0px" viewBox="0 0 1400 980" style="enable-background:new 0 0 1400 980;" xml:space="preserve">
<style type="text/css">
	.st0{fill:#151D38;}
	.st1{fill:#249A4B;}
	.st2{fill:#D6E9F6;}
	.st3{fill:#7DA6ED;}
	.st4{fill:#FFFFFF;}
	.st5{fill:#CED8DC;}
	.st6{fill:#E8384A;}
</style>
<g>
	<path class="st0" d="M1157.118,359.873c0.873-1.076,2.007-1.857,3.146-2.59c4.204-2.704,9.684-1.675,12.68,2.319
		c2.906,3.875,2.382,9.327-1.325,12.573c-1.984,1.737-4.147,3.269-6.187,4.946c-0.516,0.424-1.518,0.675-1.322,1.489
		c0.158,0.656,1.097,0.45,1.687,0.629c3.626,1.1,5.911,3.477,6.73,7.181c0.799,3.615-0.318,6.628-3.024,9.104
		c-0.966,0.884-2.145,1.341-3.328,1.823c-8.002,3.26-15.985,6.568-24.007,9.779c-1.457,0.583-2.1,1.308-2.131,2.968
		c-0.26,14.215-1.574,28.339-3.68,42.401c-2.43,16.233-6.018,32.192-10.993,47.833c-6.292,19.78-14.564,38.651-26.009,56.041
		c-7.949,12.078-17.296,22.973-27.888,32.807c-2.095,1.945-2.141,1.973-0.525,4.394c6.068,9.084,14.543,14.036,25.475,14.687
		c2.662,0.159,3.122,0.67,2.841,3.353c-0.267,2.555-1.42,4.666-3.136,6.523c-1.618,1.751-3.56,3.115-5.405,4.596
		c-1.066,0.856-2.128,1.711-2.958,2.818c-2.426,3.236-2.344,7.209,0.24,10.318c1.056,1.27,2.371,2.255,3.646,3.286
		c1.344,1.086,2.75,2.118,3.97,3.333c5.189,5.169,5.104,12.345-0.187,17.448c-1.11,1.071-2.38,1.975-3.56,2.975
		c-1.179,1-2.439,1.93-3.487,3.055c-3.17,3.402-3.216,7.878-0.087,11.321c1.093,1.202,2.459,2.157,3.702,3.222
		c1.243,1.066,2.566,2.052,3.718,3.208c4.881,4.897,4.968,11.878,0.185,16.866c-1.19,1.241-2.624,2.247-3.941,3.367
		c-1.109,0.943-2.283,1.822-3.301,2.855c-3.595,3.645-3.559,8.534,0.115,12.116c1.234,1.203,2.638,2.236,4.005,3.295
		c1.301,1.009,2.512,2.108,3.629,3.31c1.734,1.867,2.707,4.085,2.91,6.621c0.175,2.198-0.374,2.812-2.518,2.917
		c-0.454,0.022-0.911,0.006-1.366,0.006c-46.364,0-92.728,0.041-139.092-0.012c-46.08-0.052-86.668-28.181-102.972-71.254
		c-1.613-4.261-3.049-8.594-3.929-13.059c-0.427-2.164-1.49-3.501-3.237-4.712c-17.676-12.257-35.994-23.451-55.06-33.409
		c-24.243-12.662-49.355-23.272-75.336-31.833c-24.329-8.017-49.132-14.105-74.389-18.319c-18.87-3.148-37.873-5.16-56.983-6.12
		c-12.464-0.626-24.94-0.849-37.411-0.474c-12.828,0.385-25.634,1.171-38.415,2.454c-21.583,2.166-42.936,5.674-64.061,10.562
		c-36.122,8.357-70.911,20.532-104.347,36.57c-24.427,11.717-47.721,25.364-69.989,40.788c-2.302,1.595-3.558,3.217-3.861,6.257
		c-1.175,11.757-4.363,23.041-9.221,33.827c-1.414,3.139-1.484,2.987,1.911,2.987c44.087-0.003,88.173-0.002,132.26-0.002
		c0.273,0,0.547,0.002,0.82-0.001c2.549-0.03,2.576-0.031,2.579-2.517c0.012-9.473-0.05-18.947,0.031-28.419
		c0.036-4.181,0.278-8.357,0.911-12.512c3.748-24.582,23.808-45.458,48.254-50.155c4.035-0.775,8.089-1.204,12.208-1.165
		c6.831,0.065,13.663,0.017,20.495,0.018c27.586,0.003,52.107,19.061,58.948,45.77c1.387,5.415,2.027,10.914,2.055,16.481
		c0.049,9.564,0.014,19.128,0.014,28.693c0,0.638,0.051,1.28-0.007,1.912c-0.127,1.385,0.411,1.891,1.848,1.92
		c6.77,0.132,13.452-0.422,20.042-2.055c8.069-1.998,15.72-5.157,23.394-8.263c8.606-3.483,17.29-6.72,26.42-8.61
		c19.773-4.095,39.256-3.068,58.463,3.185c7.361,2.397,14.476,5.429,21.662,8.28c8.051,3.195,16.232,5.913,24.887,6.99
		c4.177,0.519,8.361,0.409,12.547,0.448c0.819,0.008,1.647-0.042,2.456,0.058c1.021,0.126,1.727,0.748,1.645,1.815
		c-0.072,0.935-0.788,1.425-1.715,1.426c-3.368,0.003-6.739,0.053-10.104-0.062c-10.804-0.369-20.924-3.581-30.862-7.536
		c-7.858-3.128-15.628-6.502-23.742-8.94c-23.831-7.161-47.426-6.303-70.732,2.322c-7.421,2.746-14.735,5.782-22.132,8.595
		c-10.05,3.821-20.422,5.965-31.228,5.671c-0.364-0.01-0.731,0.031-1.093,0.001c-1.276-0.106-1.87,0.434-1.756,1.741
		c0.047,0.542,0.004,1.092,0.004,1.639c0,19.037-0.004,38.075,0.012,57.112c0.001,0.886-0.424,2.234,0.275,2.551
		c0.841,0.381,1.153-1.118,1.909-1.551c1.153-0.661,1.726-1.553,2.011-2.966c0.729-3.61,3.535-5.516,7.19-5.261
		c3.182,0.222,5.894,2.606,5.998,5.994c0.063,2.051,1.034,2.859,2.476,3.744c5.198,3.19,10.377,6.411,15.527,9.68
		c1.086,0.689,1.938,0.886,3.232,0.316c3.442-1.515,6.98-0.245,8.691,2.863c1.689,3.067,0.991,6.432-2.064,8.661
		c-1.05,0.766-1.349,1.611-1.424,2.717c-0.074,1.094-1.474,2.246-0.832,2.955c0.697,0.77,2.247,0.261,3.422,0.261
		c40.716,0.012,81.433,0.011,122.149,0.008c3.592,0,3.533,0.291,2.024-3.085c-2.786-6.231-5.624-12.438-8.428-18.661
		c-0.335-0.743-0.676-1.499-0.874-2.284c-0.223-0.882,0.083-1.667,0.987-1.998c0.779-0.285,1.455,0.055,1.874,0.738
		c0.378,0.617,0.672,1.29,0.971,1.952c2.024,4.479,4.037,8.963,6.061,13.442c0.299,0.661,0.63,1.309,0.975,1.946
		c0.066,0.121,0.283,0.241,0.41,0.223c0.114-0.016,0.28-0.219,0.288-0.347c0.041-0.726,0.053-1.455,0.053-2.183
		c0.003-8.016-0.002-16.031,0.008-24.047c0.001-0.816-0.011-1.649,0.146-2.442c0.169-0.856,0.907-1.075,1.692-1.035
		c0.715,0.037,1.227,0.422,1.323,1.142c0.096,0.718,0.091,1.452,0.091,2.179c0.006,8.016,0.003,16.031,0.004,24.047
		c0,0.729-0.006,1.458,0.025,2.185c0.01,0.239-0.034,0.637,0.366,0.578c0.214-0.032,0.465-0.26,0.575-0.466
		c0.299-0.561,0.529-1.158,0.791-1.738c2.138-4.726,4.264-9.457,6.422-14.173c0.868-1.897,1.693-2.446,2.714-1.935
		c1.042,0.522,1.155,1.464,0.305,3.357c-2.871,6.393-5.762,12.776-8.646,19.163c-0.187,0.415-0.385,0.825-0.563,1.244
		c-0.916,2.159-0.914,2.192,1.51,2.194c14.392,0.011,28.784,0.006,43.176,0.006c0.729,0,1.458-0.02,2.186,0.007
		c1.801,0.067,2.003,0.342,1.88,2.107c-0.053,0.762-0.302,1.212-1.1,1.234c-0.637,0.018-1.275,0.029-1.912,0.029
		c-125.337,0.001-250.675,0.001-376.012,0.001c-0.455,0-0.915-0.046-1.365,0.002c-1.39,0.151-1.672-0.579-1.665-1.799
		c0.007-1.172,0.425-1.613,1.598-1.593c2.823,0.049,5.647,0.035,8.471,0.003c2.088-0.024,2.09-0.055,2.154-2.138
		c0.014-0.455,0.003-0.911,0.003-1.366c0-27.873,0.004-55.746-0.005-83.619c-0.001-3.55,0.425-3.334-3.433-3.334
		c-44.724-0.005-89.449,0.011-134.173-0.046c-2.158-0.003-3.375,0.596-4.471,2.565c-9.071,16.292-21.54,29.257-38.08,38.095
		c-10.884,5.816-22.52,9.194-34.779,10.531c-9.551,1.042-19.082,0.795-28.623-0.113c-1.298-0.124-2.374-0.844-3.631-0.99
		c0-0.547,0-1.093,0-1.64c2.353-1.193,4.798-0.48,7.19-0.268c16.152,1.432,31.997,0.263,47.325-5.425
		c19.807-7.35,34.882-20.416,45.834-38.316c9.081-14.843,14.265-31,15.742-48.355c0.881-10.353,0.285-20.547-2.899-30.501
		c-1.143-3.572-2.764-6.91-4.84-10.051c-7.773-11.755-20.451-10.844-28.618-6.159c-3.214,1.844-5.723,4.475-7.934,7.407
		c-3.417,4.533-5.907,9.606-8.487,14.625c-2.748,5.344-5.495,10.681-8.887,15.664c-9.134,13.419-21.911,20.38-37.98,21.57
		c-2.814,0.208-5.626,0.471-8.453,0.361c-0.546-0.021-1.103,0.028-1.635-0.068c-1.013-0.182-2.061-0.435-1.888-1.825
		c0.151-1.214,1.103-1.317,2.052-1.277c3.009,0.128,5.999-0.136,8.999-0.319c16.251-0.991,28.76-8.264,37.47-22.067
		c3.311-5.247,6.058-10.791,8.903-16.287c2.556-4.937,5.199-9.821,8.781-14.118c4.293-5.15,9.618-8.551,16.321-9.632
		c8.764-1.414,16.229,0.874,22.054,7.76c4.837,5.718,7.328,12.524,8.862,19.722c1.179,5.532,1.77,11.141,1.668,16.81
		c-0.015,0.819,0.003,1.639,0.022,2.459c0.019,0.84,0.363,1.22,1.187,0.732c0.547-0.324,1.065-0.699,1.589-1.063
		c15.275-10.595,31.117-20.267,47.453-29.133c0.399-0.217,0.793-0.444,1.202-0.642c0.692-0.335,0.934-0.791,0.536-1.523
		c-1.782-3.279-3.552-6.564-5.319-9.85c-0.562-1.044-1.266-0.718-2.053-0.289c-2.955,1.614-5.924,3.2-8.889,4.796
		c-0.481,0.259-0.966,0.508-1.446,0.769c-0.978,0.531-1.236,0.08-1.327-0.861c-0.289-2.989-0.655-5.971-0.961-8.959
		c-1.039-10.141-2.068-20.282-3.088-30.425c-0.041-0.41-0.384-0.96,0.112-1.22c0.467-0.245,0.828,0.253,1.166,0.529
		c7.415,6.038,14.823,12.084,22.232,18.129c2.823,2.303,5.623,4.634,8.475,6.9c0.971,0.772,0.738,1.179-0.206,1.68
		c-3.216,1.705-6.419,3.434-9.612,5.182c-1.81,0.991-2.311,0.689-0.885,3.239c1.466,2.621,2.824,5.302,4.285,7.926
		c1.063,1.909,0.772,1.955,2.819,0.897c6.145-3.174,12.35-6.221,18.608-9.164c14.008-6.585,28.318-12.436,42.855-17.74
		c0.427-0.156,0.85-0.33,1.287-0.45c1.066-0.293,1.162-0.991,0.843-1.895c-1.029-2.917-2.108-5.818-3.053-8.761
		c-0.397-1.235-1.068-1.259-2.066-0.908c-3.346,1.176-6.698,2.337-10.052,3.489c-2.251,0.773-2.308,0.758-2.185-1.514
		c0.372-6.907,0.785-13.812,1.191-20.717c0.31-5.269,0.633-10.538,0.948-15.807c0.049-0.818,0.016-1.648,0.143-2.453
		c0.145-0.918,0.655-1.002,1.288-0.354c0.318,0.325,0.612,0.674,0.914,1.016c8.262,9.346,16.523,18.692,24.784,28.039
		c0.241,0.273,0.467,0.56,0.719,0.822c0.749,0.777,0.492,1.172-0.451,1.492c-3.444,1.171-6.873,2.387-10.305,3.595
		c-2.233,0.786-2.234,0.795-1.464,3.057c0.85,2.498,1.678,5.004,2.572,7.486c0.633,1.757,0.686,1.778,2.552,1.158
		c9.754-3.24,19.547-6.347,29.462-9.062c8.072-2.211,16.185-4.249,24.351-6.081c2.578-0.578,2.597-0.629,1.114-2.728
		c-4.376-6.194-8.089-12.762-11.104-19.716c-5.451-12.573-8.568-25.704-9.061-39.41c-1.129-31.396,8.904-58.721,30.427-81.615
		c17.295-18.396,38.567-29.712,63.564-33.363c35.061-5.122,66.092,4.13,92.396,27.914c18.937,17.122,30.38,38.584,34.616,63.818
		c2.022,12.045,2.031,24.091,0.058,36.145c-0.138,0.844-0.714,1.977,0.064,2.532c0.637,0.455,1.46-0.455,2.161-0.818
		c24.344-12.58,49.761-22.348,76.298-29.194c15.084-3.891,30.34-6.869,45.818-8.679c1.898-0.222,3.801-0.417,5.689-0.703
		c1.789-0.271,1.796-0.319,1.433-2.086c-0.935-4.545-1.965-9.072-2.813-13.634c-2.883-15.502-4.672-31.131-5.292-46.891
		c-0.086-2.181-0.379-4.364-0.305-6.537c0.054-1.598-0.658-2.208-1.994-2.742c-8.19-3.279-16.35-6.634-24.524-9.954
		c-3.512-1.427-5.618-3.948-6.007-7.762c-0.373-3.658,0.988-6.589,3.924-8.775c1.108-0.826,2.362-1.349,3.745-1.563
		c0.334-0.052,0.812-0.204,0.922-0.447c0.239-0.527-0.342-0.746-0.66-0.998c-2.14-1.698-4.32-3.346-6.449-5.057
		c-3.158-2.538-4.309-5.873-3.29-9.74c1.02-3.871,3.737-6.181,7.656-6.926c2.965-0.564,5.555,0.411,7.861,2.291
		c0.547,0.446,1.197,1.397,1.744,1.065c0.56-0.339-0.09-1.293-0.233-1.964c-0.916-4.296,1.125-8.521,5.087-10.454
		c3.976-1.941,8.583-1,11.328,2.5c2.865,3.654,5.582,7.424,8.364,11.144c0.873,1.167,1.743,2.336,2.622,3.497
		c0.255,0.337,0.474,0.743,0.997,0.717c-0.033-0.352-0.016-0.717-0.107-1.053c-0.525-1.932-1.093-3.852-1.613-5.785
		c-0.603-2.241-0.79-4.51,0.099-6.707c1.417-3.5,3.985-5.596,7.811-5.927c3.789-0.328,6.743,1.156,8.804,4.344
		c0.794,1.229,1.249,2.616,1.632,4.031c1.569,5.797,3.152,11.59,4.762,17.375c0.569,2.044,0.613,2.035,2.47,0.898
		c0.854-0.523,1.676-1.103,2.554-1.58c4.391-2.383,9.849-0.951,12.459,3.245c2.638,4.242,1.569,9.727-2.575,12.596
		c-3.068,2.124-6.206,4.151-9.387,6.102c-1.317,0.808-1.835,1.737-1.836,3.3c-0.006,14.767,0.899,29.466,2.893,44.104
		c1.624,11.917,3.925,23.687,7.136,35.278c0.732,2.641,0.733,2.645,3.43,2.671c7.652,0.074,15.275,0.685,22.898,1.282
		c2.942,0.23,2.603,0.617,3.158-2.558c1.638-9.374,4.252-18.457,8.34-27.045c15.93-33.461,41.709-55.249,78.128-62.628
		c36.574-7.41,69.161,2.154,96.715,27.425c18.184,16.678,28.99,37.59,33.255,61.876c1.12,6.382,1.474,12.84,1.498,19.308
		c0.045,12.206,0.013,24.412,0.013,36.617c0,0.729-0.012,1.458,0.013,2.186c0.012,0.348-0.085,0.81,0.321,0.969
		c0.422,0.165,0.602-0.27,0.787-0.542c0.461-0.677,0.889-1.377,1.326-2.07c12.793-20.283,21.596-42.236,27.321-65.464
		c3.755-15.233,6.12-30.686,7.251-46.336c0.591-8.176,0.966-16.352,1.015-24.55c0.011-1.825-0.441-3.011-2.094-3.976
		c-2.984-1.742-5.842-3.704-8.709-5.639c-4.662-3.147-5.847-8.593-2.905-13.099c2.82-4.32,8.379-5.464,13.003-2.685
		c1.158,0.696,2.385,2.227,3.47,1.851c1.312-0.455,1.116-2.473,1.5-3.818c1.526-5.334,2.919-10.706,4.416-16.049
		c1.062-3.792,3.37-6.464,7.34-7.276c6.804-1.392,12.518,4.499,11.01,11.328c-0.47,2.128-1.209,4.195-1.76,6.307
		c-0.144,0.554-0.689,1.324-0.062,1.689c0.355,0.207,0.732-0.658,1.047-1.076c2.85-3.782,5.685-7.575,8.524-11.364
		c0.71-0.947,1.382-1.926,2.138-2.835c2.918-3.503,7.301-4.509,11.318-2.635c3.924,1.831,6.013,6.021,5.228,10.426
		c-0.154,0.863-0.831,1.679-0.286,2.616c-0.054-0.039-0.11-0.073-0.167-0.107C1157.229,359.647,1157.25,359.695,1157.118,359.873z"
		/>
	<path class="st1" d="M1020.199,731.701c24.047,0,48.094,0,72.14,0c0.729,0,1.458-0.02,2.186-0.003
		c1.07,0.025,1.214-0.467,0.873-1.372c-0.635-1.684-1.839-2.921-3.161-4.042c-1.804-1.531-3.755-2.897-5.494-4.496
		c-5.471-5.031-5.604-12.398-0.359-17.638c1.027-1.026,2.193-1.913,3.307-2.851c1.184-0.996,2.444-1.91,3.558-2.978
		c1.551-1.488,2.542-3.271,2.661-5.512c0.133-2.525-0.662-4.624-2.409-6.434c-1.909-1.979-4.231-3.451-6.282-5.255
		c-3.199-2.815-4.931-6.222-4.556-10.59c0.32-3.719,2.297-6.438,5.031-8.737c1.88-1.582,3.841-3.072,5.664-4.717
		c2.294-2.07,2.926-4.756,2.407-7.725c-0.399-2.285-1.88-3.908-3.573-5.335c-1.67-1.408-3.476-2.661-5.094-4.124
		c-6.136-5.548-6.077-13.316,0.117-18.77c1.365-1.202,2.843-2.276,4.255-3.425c1.203-0.979,2.366-2.007,3.216-3.323
		c1.422-2.201,1.242-2.582-1.31-2.89c-16.668-2.011-29.77-15.864-30.799-32.584c-0.056-0.904-0.064-1.835,0.091-2.722
		c0.135-0.773,0.738-1.226,1.585-1.225c0.717,0.001,1.263,0.345,1.471,0.998c0.19,0.594,0.24,1.244,0.278,1.874
		c0.146,2.459,0.447,4.888,1.152,7.259c0.782,2.632,0.766,2.637,2.733,0.801c15.818-14.764,28.417-31.923,38.008-51.291
		c12.962-26.176,20.719-53.943,25.106-82.728c2.184-14.326,3.419-28.737,3.692-43.222c0.042-2.251,0.766-3.386,2.883-4.218
		c8.549-3.362,17.026-6.906,25.525-10.395c3.454-1.418,4.88-4.086,3.96-7.336c-0.869-3.069-3.827-4.718-7.308-4.159
		c-2.931,0.47-5.583,1.407-7.815,3.509c-1.585,1.492-3.412,2.727-5.137,4.069c-0.43,0.335-0.848,0.709-1.33,0.947
		c-0.7,0.346-1.433,0.324-2.005-0.294c-0.652-0.705-0.641-1.53-0.076-2.233c0.448-0.556,1.066-0.982,1.637-1.43
		c5.085-3.993,10.178-7.976,15.266-11.966c2.364-1.855,4.825-3.603,7.056-5.607c3.512-3.154,2.211-8.559-2.277-10.016
		c-2.117-0.687-3.934-0.137-5.61,1.169c-3.807,2.967-7.583,5.973-11.425,8.894c-1.686,1.281-3.137,2.739-4.399,4.436
		c-2.174,2.922-4.428,5.784-6.654,8.668c-0.389,0.504-0.783,1.008-1.21,1.48c-0.728,0.804-1.648,0.883-2.449,0.266
		c-0.868-0.668-0.766-1.601-0.144-2.431c1.475-1.967,2.972-3.917,4.471-5.866c4.443-5.774,8.934-11.51,13.318-17.328
		c2.13-2.827,1.603-6.108-1.101-8.211c-2.56-1.992-5.819-1.663-8.064,0.862c-0.724,0.814-1.349,1.718-2.002,2.594
		c-4.958,6.64-9.912,13.283-14.868,19.924c-0.381,0.511-0.741,1.042-1.165,1.516c-0.592,0.661-1.323,0.966-2.198,0.571
		c-0.908-0.41-1.081-1.189-0.894-2.056c0.192-0.887,0.475-1.755,0.716-2.632c1.445-5.262,2.892-10.524,4.332-15.788
		c0.692-2.53-1.042-5.751-3.877-6.697c-2.665-0.889-5.594,0.249-6.99,2.807c-0.656,1.203-1.018,2.525-1.376,3.846
		c-1.809,6.672-3.611,13.347-5.471,20.005c-0.595,2.131-1.501,2.474-3.388,1.353c-1.799-1.069-3.522-2.264-5.301-3.368
		c-1.831-1.135-3.761-1.33-5.713-0.347c-4.242,2.135-4.621,7.534-0.653,10.269c3.371,2.323,6.815,4.55,10.314,6.675
		c1.594,0.968,2.147,2.123,2.144,3.983c-0.016,9.654-0.339,19.289-1.124,28.915c-1.476,18.103-4.496,35.928-9.458,53.405
		c-6.486,22.843-16.037,44.285-29.453,63.941c-0.359,0.526-0.722,1.05-1.1,1.563c-0.638,0.866-1.551,0.91-2.464,0.683
		c-0.931-0.231-1.245-0.978-1.249-1.88c-0.003-0.729-0.01-1.457-0.01-2.186c-0.001-14.574-0.008-29.148,0.003-43.721
		c0.005-5.929-0.351-11.838-1.352-17.679c-4.393-25.655-16.253-47.227-36.18-63.994c-25.135-21.15-54.234-29.078-86.612-23.844
		c-23.122,3.738-42.769,14.58-58.812,31.635c-19.357,20.58-29.273,45.139-29.715,73.385c-0.241,15.39-0.043,30.786-0.044,46.18
		c0,0.728-0.005,1.457-0.031,2.185c-0.025,0.699-0.364,1.239-1.017,1.477c-0.732,0.266-1.448,0.182-1.983-0.463
		c-0.348-0.419-0.674-0.858-0.977-1.311c-1.769-2.65-3.586-5.27-5.281-7.966c-12.911-20.543-21.647-42.816-27.314-66.337
		c-5.829-24.196-8.18-48.78-8.18-73.634c0-2.244,0.768-3.476,2.595-4.573c3.354-2.013,6.603-4.205,9.847-6.393
		c2.542-1.715,3.416-4.285,2.477-6.856c-1.347-3.685-5.263-5.135-8.688-3.154c-1.732,1.002-3.369,2.167-5.082,3.204
		c-2.304,1.394-3.081,1.054-3.852-1.601c-0.076-0.262-0.116-0.534-0.188-0.798c-1.753-6.407-3.517-12.81-5.253-19.221
		c-0.335-1.237-0.714-2.458-1.349-3.563c-1.333-2.319-4.094-3.438-6.563-2.734c-2.56,0.73-4.278,2.999-4.285,5.677
		c-0.003,1.01,0.227,1.978,0.501,2.949c1.409,4.99,2.792,9.987,4.173,14.985c0.193,0.699,0.409,1.408,0.464,2.124
		c0.051,0.655-0.228,1.24-0.908,1.541c-0.645,0.285-1.293,0.257-1.789-0.205c-0.527-0.491-0.952-1.096-1.388-1.677
		c-5.354-7.14-10.701-14.286-16.053-21.428c-0.437-0.582-0.847-1.196-1.357-1.709c-2.108-2.122-5.264-2.286-7.712-0.441
		c-2.298,1.731-3.015,4.78-1.653,7.324c0.426,0.795,1.01,1.511,1.563,2.231c5.217,6.787,10.442,13.567,15.665,20.349
		c0.389,0.505,0.808,0.991,1.154,1.523c0.562,0.865,0.612,1.799-0.251,2.439c-0.818,0.606-1.748,0.491-2.437-0.331
		c-0.818-0.976-1.652-1.953-2.355-3.011c-4.59-6.915-10.4-12.597-17.227-17.285c-1.649-1.132-3.113-2.537-4.785-3.629
		c-2.703-1.764-6.065-1.056-7.995,1.527c-1.89,2.529-1.561,5.667,0.846,7.856c0.538,0.489,1.135,0.913,1.708,1.362
		c7.095,5.562,14.2,11.112,21.279,16.694c1.425,1.124,1.683,2.054,1.035,2.964c-0.65,0.911-1.655,0.854-3.092-0.188
		c-0.295-0.213-0.567-0.457-0.854-0.681c-2.154-1.68-4.317-3.349-6.462-5.04c-2.517-1.985-5.513-2.147-8.515-2.219
		c-0.925-0.022-1.754,0.474-2.487,1.025c-1.893,1.422-2.857,3.311-2.522,5.691c0.333,2.362,1.71,3.901,3.941,4.803
		c8.686,3.509,17.338,7.105,26.036,10.584c1.736,0.694,2.543,1.593,2.583,3.587c0.308,15.213,1.618,30.341,3.969,45.384
		c3.342,21.384,8.671,42.231,16.554,62.401c11.293,28.895,27.593,54.304,51.82,74.159c1.25,1.024,1.715,2.146,1.706,3.745
		c-0.058,10.11,0.02,20.221-0.041,30.331c-0.076,12.504,1.798,24.694,6.075,36.438c9.968,27.369,28.071,47.544,54.182,60.448
		c14.959,7.392,30.907,10.604,47.532,10.625C978.482,731.721,999.341,731.701,1020.199,731.701z"/>
	<path class="st2" d="M431.339,498.323c0.316,3.683,0.306,7.777,0.778,11.857c2.184,18.86,8.916,35.921,19.97,51.328
		c1.026,1.431,1.95,1.913,3.813,1.528c21.052-4.354,42.294-7.42,63.742-8.994c3.086-0.227,6.174-0.427,9.261-0.629
		c1.264-0.083,1.959-0.481,1.844-2.004c-0.213-2.81-0.149-5.64-0.292-8.457c-0.101-1.989-0.168-2.049-1.99-2.041
		c-3.277,0.015-6.554,0.096-9.831,0.186c-2.943,0.081-2.956,0.097-1.922-2.658c4.028-10.733,8.066-21.462,12.099-32.194
		c0.48-1.277,0.945-2.56,1.426-3.837c0.125-0.331,0.301-0.718,0.698-0.657c0.185,0.028,0.344,0.395,0.466,0.634
		c0.207,0.404,0.374,0.828,0.561,1.243c4.983,11.029,9.967,22.057,14.949,33.087c0.337,0.746,0.667,1.496,0.992,2.248
		c0.346,0.801-0.003,1.229-0.791,1.319c-0.631,0.072-1.272,0.053-1.909,0.067c-3.095,0.066-6.191,0.099-9.284,0.204
		c-1.977,0.068-2.14,0.265-2.117,2.282c0.026,2.185,0.144,4.368,0.158,6.553c0.025,3.915-0.165,3.775,3.745,3.568
		c12.283-0.651,24.572-0.616,36.86-0.272c6.365,0.178,12.726,0.569,19.084,0.937c1.364,0.079,2.418-0.254,3.5-1.099
		c14.519-11.344,29.861-21.451,45.989-30.356c1.204-0.665,1.979-1.411,2.25-2.812c2.618-13.55,2.875-27.128,0.351-40.704
		c-4.295-23.098-14.815-42.947-31.983-58.985c-24.983-23.338-54.726-32.968-88.591-28.746c-25.49,3.178-47.124,14.574-64.644,33.382
		C441.241,444.995,431.801,469.705,431.339,498.323z"/>
	<path class="st3" d="M534.288,715.665c0-19.485,0.016-38.97-0.015-58.455c-0.005-3.363-0.239-6.716-0.734-10.059
		c-4.5-30.436-33.405-54.034-66.909-48.585c-29.13,4.738-48.862,30.116-48.757,57.651c0.156,41.155,0.039,82.311,0.043,123.466
		c0,3.847-0.27,3.441,3.312,3.442c36.603,0.008,73.206,0.008,109.809,0c3.176-0.001,3.254,0.502,3.253-3.268
		C534.285,758.46,534.288,737.062,534.288,715.665z"/>
	<path class="st4" d="M781.053,482.183c-0.518,0.068-0.878,0.128-1.24,0.161c-6.35,0.577-12.661,1.47-18.947,2.504
		c-19.789,3.254-39.187,8.083-58.175,14.569c-30.845,10.537-59.737,24.962-86.611,43.405c-4.728,3.245-9.306,6.709-13.944,10.085
		c-0.338,0.246-0.89,0.501-0.633,1.029c0.098,0.201,0.622,0.237,0.96,0.273c5.522,0.577,11.056,1.057,16.567,1.725
		c19.259,2.334,38.336,5.689,57.211,10.197c53.113,12.685,102.848,33.448,149.228,62.262c6.962,4.325,13.812,8.821,20.56,13.472
		c0.434,0.299,0.93,0.889,1.418,0.551c0.433-0.3,0.187-1.015,0.109-1.537c-0.512-3.424-0.959-6.858-0.978-10.322
		c-0.06-11.386-0.133-22.772-0.049-34.158c0.016-2.209-0.612-3.673-2.297-5.117c-12.173-10.421-22.857-22.172-31.576-35.671
		c-12.607-19.517-21.387-40.715-27.814-62.954c-0.859-2.971-1.582-5.981-2.407-8.962
		C782.228,482.94,782.099,481.987,781.053,482.183z"/>
	<path class="st4" d="M829.431,481.09c-0.002-0.072-0.005-0.145-0.007-0.217c-2.181,0-4.363,0.015-6.544-0.004
		c-2.632-0.022-2.654-0.027-1.864,2.475c4.643,14.713,10.618,28.854,18.289,42.253c1.943,3.394,4.071,6.683,6.129,10.012
		c0.132,0.214,0.405,0.498,0.598,0.487c0.475-0.026,0.434-0.474,0.44-0.823c0.012-0.637,0.007-1.275,0.007-1.913
		c0-12.569-0.005-25.138,0.003-37.706c0.002-3.641,0.016-7.279,0.482-10.905c0.282-2.187,0.218-2.302-2.015-2.496
		C839.782,481.806,834.604,481.471,829.431,481.09z"/>
	<path class="st4" d="M553.591,783.126c0,0.001,0,0.003,0,0.004c4.365,0,8.73,0.004,13.095-0.001
		c2.608-0.003,2.598-0.006,1.815-2.379c-0.17-0.514-0.306-1.058-0.339-1.595c-0.057-0.915-0.526-1.477-1.275-1.942
		c-6.024-3.737-12.04-7.486-18.044-11.255c-0.749-0.47-1.427-0.606-2.294-0.304c-3.119,1.088-5.696,0.192-7.801-2.28
		c-0.209-0.245-0.325-0.724-0.776-0.584c-0.436,0.136-0.346,0.587-0.346,0.92c-0.011,5.911,0.015,11.822-0.026,17.733
		c-0.009,1.33,0.563,1.711,1.804,1.7C544.133,783.101,548.862,783.126,553.591,783.126z"/>
	<path class="st5" d="M551.607,753.158c0.104-2.193-1.247-3.789-3.137-3.868c-1.976-0.082-3.507,1.602-3.393,3.733
		c0.119,2.219,0.119,2.219-1.861,3.151c-2.089,0.983-2.872,2.839-1.961,4.644c0.85,1.684,2.803,2.354,4.647,1.272
		c1.301-0.763,2.208-0.711,3.454,0.081c6.745,4.291,13.537,8.509,20.345,12.701c1.263,0.778,1.995,1.572,1.919,3.233
		c-0.102,2.244,1.284,3.624,3.159,3.63c1.957,0.007,3.571-1.648,3.318-3.803c-0.207-1.766,0.203-2.609,1.983-3.183
		c2.135-0.689,2.82-2.873,1.791-4.616c-1.055-1.788-3.193-2.323-4.887-0.865c-1.515,1.303-2.661,1.003-4.12,0.08
		c-6.296-3.982-12.62-7.922-18.962-11.831C552.171,756.45,550.614,755.406,551.607,753.158z"/>
	<path class="st1" d="M300.082,573.947c0.341,3.331,0.653,6.409,0.971,9.487c0.569,5.521,1.13,11.043,1.719,16.562
		c0.173,1.623,0.425,1.786,1.849,1.026c5.698-3.04,11.369-6.131,17.056-9.193c0.857-0.462,1.327-0.881,0.302-1.714
		c-6.855-5.568-13.688-11.161-20.535-16.738c-0.337-0.274-0.728-0.721-1.184-0.422C299.844,573.227,300.095,573.776,300.082,573.947
		z"/>
	<path class="st1" d="M375.009,554.2c-0.332,6.048-0.555,10.22-0.792,14.391c-0.064,1.122,0.298,1.433,1.431,1.035
		c6.165-2.163,12.357-4.251,18.524-6.409c1.382-0.484,1.404-0.641,0.347-1.842c-5.706-6.475-11.434-12.93-17.16-19.388
		c-0.346-0.39-0.671-1.043-1.267-0.76c-0.254,0.12-0.295,0.818-0.325,1.261C375.461,547.016,375.178,551.546,375.009,554.2z"/>
	<path class="st1" d="M531.703,537.731c0-0.187,0.001-0.374,0.001-0.56c3.27,0,6.54,0.031,9.809-0.013
		c1.669-0.022,1.79-0.193,1.11-1.755c-1.595-3.662-3.259-7.294-4.904-10.935c-1.944-4.303-3.895-8.602-5.846-12.902
		c-0.185-0.407-0.335-0.978-0.853-0.934c-0.494,0.042-0.53,0.657-0.676,1.045c-3.044,8.069-6.083,16.141-9.091,24.224
		c-0.663,1.782-0.606,1.819,1.197,1.827C525.534,537.741,528.619,537.731,531.703,537.731z"/>
	<path class="st0" d="M1264.147,576.001c-0.967,0.377-1.98,0.233-2.974,0.233c-32.599,0.008-65.198,0.007-97.797,0.006
		c-0.637,0-1.275-0.028-1.912-0.011c-1.153,0.03-1.602-0.496-1.582-1.661c0.02-1.119,0.368-1.725,1.57-1.672
		c0.818,0.036,1.639,0.001,2.458,0.001c32.235,0,64.47,0.002,96.704-0.008c1.177,0,2.368,0.15,3.533-0.167
		C1264.147,573.815,1264.147,574.908,1264.147,576.001z"/>
	<path class="st3" d="M669.48,208.161c0.997,0.761,2.244,1.093,3.169,2.013c2.904,2.887,2.911,7.433-0.05,10.26
		c-2.938,2.806-7.578,2.614-10.25-0.424c-2.737-3.112-2.227-7.821,1.067-10.428c0.707-0.56,1.711-0.61,2.237-1.421
		C666.93,208.161,668.205,208.161,669.48,208.161z"/>
	<path class="st0" d="M989.246,786.565c-65.494,0-130.987,0-196.481-0.002c-0.91,0-1.825,0.023-2.729-0.065
		c-0.951-0.093-1.44-0.715-1.455-1.663c-0.015-0.963,0.491-1.549,1.435-1.675c0.628-0.084,1.271-0.077,1.908-0.078
		c3.461-0.007,6.923-0.003,10.384-0.003c127.617,0,255.234,0,382.851,0.002c1.002,0,2.007-0.026,3.003,0.056
		c1.062,0.088,1.664,0.726,1.602,1.814c-0.055,0.95-0.657,1.495-1.58,1.571c-0.905,0.074-1.82,0.042-2.731,0.042
		C1120.051,786.565,1054.649,786.565,989.246,786.565z"/>
	<path class="st0" d="M312.008,786.505c-3.819,0.001-7.638,0.025-11.457-0.008c-2.395-0.02-2.81-0.384-2.756-2.635
		c0.145-6.008,0.727-11.97,2.271-17.801c0.489-1.849,1.151-3.638,2.192-5.264c2.748-4.295,7.047-4.243,9.759,0.122
		c1.414,2.276,2.144,4.819,2.648,7.403c0.292,1.497,0.825,2.181,2.459,2.167c2.466-0.019,4.302,1.347,5.64,3.32
		c2.094,3.087,2.978,6.613,3.357,10.26c0.192,1.845-0.4,2.398-2.384,2.421C319.828,786.536,315.918,786.504,312.008,786.505z"/>
	<path class="st0" d="M304.431,783.125c2.663-0.066,2.8,0.581,3.364-2.978c0.355-2.245,0.93-4.593,2.528-6.219
		c1.779-1.809,1.641-3.599,0.952-5.657c-0.402-1.202-0.693-2.445-1.159-3.62c-0.364-0.918-0.814-1.84-1.413-2.616
		c-1.01-1.309-2.104-1.301-3.155-0.045c-0.882,1.053-1.403,2.317-1.841,3.614c-1.731,5.122-2.08,10.466-2.568,15.79
		c-0.119,1.3,0.457,1.84,1.732,1.738C303.321,783.095,303.777,783.125,304.431,783.125z"/>
	<path class="st0" d="M316.631,783.121c0-0.001,0-0.003,0-0.004c1.546,0,3.093-0.016,4.639,0.006
		c0.986,0.014,1.298-0.485,1.115-1.372c-0.444-2.151-1.1-4.233-2.4-6.034c-1.918-2.658-4.855-2.695-6.825-0.077
		c-1.343,1.786-1.927,3.888-2.282,6.063c-0.182,1.118,0.379,1.446,1.387,1.426C313.72,783.099,315.176,783.121,316.631,783.121z"/>
	<path class="st3" d="M881.549,314.587c0.015,0.864-0.472,1.37-1.244,1.567c-0.522,0.134-1.082,0.137-1.627,0.166
		c-4.133,0.22-6.713,2.465-8.107,6.233c-1.09,2.946-1.262,6.039-1.403,9.134c-0.033,0.726-0.027,1.46-0.147,2.172
		c-0.14,0.828-0.733,1.233-1.56,1.23c-0.837-0.003-1.423-0.449-1.535-1.263c-0.135-0.988-0.162-1.997-0.166-2.997
		c-0.01-2.661-0.396-5.27-1.198-7.796c-1.283-4.039-3.95-6.448-8.308-6.73c-0.273-0.018-0.546-0.046-0.818-0.046
		c-1.156-0.001-2.041-0.49-2.054-1.692c-0.013-1.275,0.99-1.575,2.091-1.631c0.543-0.028,1.078-0.171,1.62-0.234
		c3.646-0.426,5.944-2.523,7.201-5.863c0.971-2.58,1.363-5.276,1.458-8.022c0.038-1.092,0.04-2.188,0.148-3.273
		c0.09-0.906,0.586-1.532,1.587-1.534c1.003-0.002,1.503,0.618,1.581,1.531c0.163,1.903,0.262,3.811,0.377,5.717
		c0.116,1.924,0.523,3.792,1.227,5.576c1.342,3.401,3.698,5.564,7.479,5.911c0.724,0.067,1.455,0.141,2.158,0.315
		C881.242,313.289,881.561,313.744,881.549,314.587z M872.402,314.539c-0.197-0.216-0.349-0.434-0.547-0.593
		c-1.582-1.269-2.914-2.743-3.756-4.608c-0.438-0.971-0.893-0.759-1.244-0.004c-0.864,1.856-2.073,3.417-3.755,4.587
		c-0.639,0.444-0.551,0.846-0.012,1.251c1.633,1.226,2.869,2.764,3.764,4.599c0.353,0.724,0.793,0.974,1.246,0.012
		c0.868-1.844,2.143-3.362,3.763-4.599C872.067,315.026,872.205,314.777,872.402,314.539z"/>
	<path class="st0" d="M248.076,471.555c-0.014,0.78-0.391,1.381-1.19,1.568c-0.612,0.143-1.264,0.108-1.895,0.175
		c-3.631,0.385-6.003,2.369-7.216,5.766c-1.021,2.858-1.258,5.84-1.327,8.849c-0.052,2.303-0.388,2.877-1.564,2.96
		c-1.282,0.091-1.633-0.562-1.767-3.023c-0.138-2.537-0.252-5.08-0.938-7.552c-1.235-4.452-3.647-6.522-8.236-7.053
		c-0.36-0.042-0.732-0.01-1.086-0.078c-0.926-0.179-1.462-0.769-1.413-1.707c0.042-0.803,0.544-1.336,1.368-1.456
		c0.538-0.078,1.088-0.068,1.628-0.132c3.828-0.459,6.268-2.548,7.474-6.211c0.923-2.805,1.039-5.702,1.205-8.598
		c0.12-2.096,0.567-2.911,1.683-2.89c1.139,0.021,1.596,0.789,1.644,2.924c0.057,2.549,0.212,5.085,0.88,7.558
		c1.276,4.727,3.507,6.662,8.348,7.276c0.449,0.057,0.923,0.018,1.348,0.147C247.696,470.281,248.019,470.818,248.076,471.555z
		 M239.022,471.428c-0.045-0.076-0.073-0.174-0.138-0.224c-1.597-1.241-2.742-2.844-3.787-4.553
		c-0.438-0.716-0.728-0.028-0.904,0.312c-0.76,1.469-1.774,2.736-3.049,3.77c-0.783,0.635-0.718,1.087,0.015,1.694
		c1.191,0.986,2.225,2.127,2.887,3.55c0.425,0.912,0.881,1.093,1.4,0.096c0.762-1.464,1.753-2.737,3.047-3.766
		C238.784,472.075,239.04,471.838,239.022,471.428z"/>
	<path class="st2" d="M343.577,363.751c-0.968-0.157-1.506-0.676-1.587-1.624c-0.123-1.447-0.179-2.903-0.372-4.34
		c-0.536-3.997-1.718-5.23-5.7-6.024c-0.953-0.19-1.822-0.496-1.896-1.611c-0.089-1.34,0.944-1.565,1.96-1.797
		c4.02-0.917,5.102-2.078,5.64-6.137c0.179-1.348,0.228-2.713,0.331-4.071c0.078-1.036,0.56-1.795,1.65-1.773
		c1.077,0.022,1.539,0.775,1.626,1.82c0.136,1.626,0.064,3.261,0.424,4.881c0.651,2.928,1.975,5.085,5.32,5.24
		c0.179,0.008,0.353,0.085,0.533,0.114c0.886,0.145,1.582,0.521,1.605,1.53c0.026,1.125-0.721,1.555-1.697,1.782
		c-4.426,1.029-5.487,2.197-6,6.684c-0.134,1.171-0.122,2.359-0.191,3.538C345.161,363.025,344.575,363.605,343.577,363.751z
		 M343.618,347.924c-0.263-0.016-1.944,1.758-1.955,2.063c-0.009,0.24,1.625,2.209,1.847,2.227c0.302,0.024,1.909-1.738,1.939-2.126
		C345.48,349.688,344.008,347.948,343.618,347.924z"/>
	<path class="st0" d="M418.333,231.687c0.922,0.056,1.386,0.58,1.499,1.372c0.154,1.075,0.229,2.162,0.326,3.245
		c0.336,3.739,1.241,4.839,4.929,5.704c0.915,0.215,1.557,0.56,1.609,1.515c0.06,1.104-0.628,1.551-1.651,1.772
		c-3.566,0.772-4.503,1.839-4.871,5.4c-0.121,1.172-0.179,2.351-0.339,3.517c-0.111,0.81-0.65,1.303-1.48,1.323
		c-0.829,0.02-1.386-0.49-1.599-1.234c-0.171-0.596-0.172-1.25-0.189-1.88c-0.034-1.273-0.14-2.523-0.514-3.758
		c-0.585-1.931-1.762-3.123-3.817-3.35c-0.447-0.05-0.925-0.041-1.33-0.205c-0.632-0.257-0.963-0.789-0.964-1.502
		c-0.002-0.722,0.335-1.228,1.002-1.449c0.424-0.14,0.89-0.16,1.339-0.22c2.174-0.295,3.305-1.659,3.877-3.671
		c0.43-1.512,0.316-3.057,0.444-4.588C416.696,232.608,417.106,231.729,418.333,231.687z M418.422,242.272
		c-0.283-0.03-1.278,0.852-1.338,1.173c-0.085,0.458,0.836,1.642,1.249,1.517c0.625-0.19,1.1-0.703,1.166-1.33
		C419.571,242.936,418.89,242.637,418.422,242.272z"/>
	<path class="st0" d="M655.64,353.432c-0.101,0.971-0.65,1.496-1.694,1.724c-3.588,0.784-4.319,1.59-4.808,5.127
		c-0.124,0.896-0.182,1.803-0.236,2.706c-0.068,1.135-0.176,2.338-1.633,2.371c-1.432,0.033-1.673-1.068-1.726-2.264
		c-0.06-1.354-0.088-2.706-0.433-4.047c-0.579-2.252-1.753-3.756-4.235-3.891c-0.181-0.01-0.367-0.007-0.541-0.05
		c-0.875-0.217-1.486-0.689-1.459-1.678c0.027-0.978,0.601-1.348,1.527-1.572c3.78-0.912,4.717-2.047,5.047-5.91
		c0.077-0.903,0.065-1.814,0.153-2.716c0.1-1.026,0.61-1.73,1.735-1.674c0.992,0.049,1.395,0.743,1.488,1.639
		c0.131,1.261,0.171,2.534,0.356,3.786c0.471,3.188,1.405,4.209,4.554,4.843C654.712,352.024,655.501,352.227,655.64,353.432z
		 M648.41,353.54c-0.041-0.701-0.523-1.239-1.084-1.34c-0.675-0.121-1.175,0.573-1.258,1.14c-0.093,0.635,0.422,1.258,1.061,1.371
		C647.881,354.844,648.104,354.101,648.41,353.54z"/>
	<path class="st0" d="M1159.941,597.834c-5.998,0-11.996,0.016-17.994-0.011c-1.746-0.008-1.846-0.229-1.828-1.853
		c0.012-1.084,0.503-1.439,1.495-1.405c0.817,0.028,1.636-0.001,2.454-0.001c10.724,0,21.448,0,32.171,0
		c0.545,0,1.091-0.015,1.636,0.004c1.862,0.066,1.884,0.18,1.974,1.749c0.089,1.554-0.853,1.523-1.913,1.521
		C1171.937,597.83,1165.939,597.834,1159.941,597.834z"/>
	<path class="st0" d="M251.094,612.364c-0.041,2.428-2.176,4.543-4.562,4.519c-2.49-0.024-4.439-2.036-4.429-4.573
		c0.009-2.527,1.988-4.508,4.482-4.489C249.009,607.84,251.135,609.981,251.094,612.364z"/>
	<path class="st0" d="M236.11,612.628c0.022,2.617-1.829,4.475-4.454,4.47c-2.607-0.005-4.449-1.889-4.408-4.509
		c0.039-2.462,1.863-4.305,4.314-4.358C234.145,608.175,236.089,610.054,236.11,612.628z"/>
	<path class="st0" d="M491.275,333.665c-0.064,2.149-1.892,3.932-4.042,3.943c-2.278,0.011-4.14-1.895-4.071-4.168
		c0.069-2.293,1.999-4.053,4.293-3.917C489.607,329.65,491.339,331.529,491.275,333.665z"/>
	<path class="st3" d="M728.007,280.338c0.032,2.259-1.64,4.021-3.881,4.09c-2.288,0.071-4.268-1.852-4.221-4.1
		c0.045-2.176,1.86-3.91,4.092-3.911C726.293,276.417,727.974,278.06,728.007,280.338z"/>
	<path class="st0" d="M371.439,463.784c0.072,1.711-1.263,3.145-2.994,3.216c-1.647,0.067-3.18-1.358-3.234-3.006
		c-0.053-1.627,1.377-3.159,3.021-3.236C369.861,460.681,371.368,462.103,371.439,463.784z"/>
	<path class="st0" d="M740.522,430.134c-0.003,1.704-1.402,3.136-3.071,3.143c-1.675,0.008-3.054-1.4-3.071-3.135
		c-0.017-1.692,1.397-3.138,3.07-3.139C739.129,427.001,740.525,428.425,740.522,430.134z"/>
	<path class="st2" d="M246.24,317.62c-1.7-0.132-3.022-1.674-2.852-3.327c0.175-1.709,1.671-2.951,3.384-2.81
		c1.697,0.14,2.987,1.659,2.839,3.343C249.459,316.544,247.996,317.757,246.24,317.62z"/>
	<path class="st3" d="M540.421,253.972c-0.006,1.75-1.392,3.079-3.163,3.032c-1.699-0.045-2.898-1.248-2.939-2.949
		c-0.044-1.817,1.232-3.175,2.999-3.193C539.067,250.844,540.428,252.208,540.421,253.972z"/>
	<path class="st0" d="M956.151,473.808c26.044,0,52.089-0.001,78.134,0.001c3.969,0,4.035,0.06,4.035,3.922
		c0.002,28.685,0.226,57.373-0.072,86.055c-0.226,21.781-8.136,40.656-23.374,56.313c-13.164,13.526-29.188,21.66-47.88,23.983
		c-25.06,3.113-47.266-3.766-66.074-20.681c-14.088-12.671-22.545-28.6-25.734-47.281c-0.657-3.851-1.052-7.73-1.043-11.671
		c0.06-28.867,0.032-57.735,0.034-86.602c0-4.035,0.006-4.037,4.114-4.037C904.245,473.808,930.198,473.808,956.151,473.808z"/>
	<path class="st6" d="M954.521,577.085c0-6.648,0.033-13.297-0.019-19.945c-0.017-2.18-0.088-4.384-0.417-6.533
		c-3.465-22.643-24.369-35.479-43.458-32.658c-16.029,2.369-29.477,15.011-32.419,30.924c-0.855,4.624-0.492,9.26-0.566,13.893
		c-0.215,13.413,3.162,25.941,9.535,37.683c16.202,29.849,50.15,46.073,83.531,39.524c26.243-5.149,45.122-20.183,56.824-44.167
		c4.818-9.875,7.102-20.431,7.301-31.399c0.097-5.359,0.321-10.735-0.762-16.061c-4.135-20.339-24.134-33.914-44.528-30.17
		c-18.281,3.356-31.551,19.268-31.564,37.873c-0.011,14.845-0.001,29.691-0.005,44.536c0,0.818,0.034,1.648-0.086,2.452
		c-0.134,0.898-0.69,1.447-1.676,1.466c-1.017,0.02-1.516-0.531-1.615-1.465c-0.076-0.722-0.071-1.454-0.072-2.181
		C954.52,592.932,954.522,585.009,954.521,577.085z"/>
	<path class="st0" d="M1034.867,512.326c0-7.558,0-15.116,0-22.674c0-0.091,0.009-0.183-0.001-0.273
		c-0.082-0.706,0.33-1.692-0.305-2.051c-0.689-0.389-1.156,0.57-1.674,0.982c-6.951,5.52-16.347,4.429-21.824-2.559
		c-0.28-0.358-0.524-0.744-0.798-1.107c-0.361-0.476-0.706-0.441-1.036,0.047c-0.306,0.452-0.606,0.911-0.946,1.337
		c-5.181,6.501-14.329,7.669-21.013,2.713c-1.411-1.046-2.584-2.298-3.529-3.762c-0.572-0.885-1.037-0.839-1.536,0.043
		c-0.178,0.316-0.398,0.611-0.624,0.895c-6.303,7.928-17.872,7.853-24.074-0.156c-0.278-0.359-0.517-0.749-0.795-1.109
		c-0.339-0.439-0.686-0.525-1.04,0.008c-0.302,0.455-0.609,0.908-0.951,1.333c-6.337,7.891-17.897,7.74-24.065-0.313
		c-0.221-0.289-0.417-0.597-0.63-0.893c-0.397-0.55-0.794-0.706-1.221-0.019c-0.192,0.309-0.411,0.601-0.635,0.888
		c-6.434,8.247-18.034,8.212-24.399-0.072c-1.17-1.523-1.17-1.523-2.298-0.056c-5.542,7.206-14.794,8.361-21.973,2.761
		c-0.474-0.369-0.883-1.23-1.482-0.963c-0.783,0.349-0.367,1.296-0.368,1.966c-0.024,15.116-0.028,30.231,0.002,45.347
		c0.002,1.015-0.545,2.46,0.441,2.914c0.496,0.228,0.992-1.486,1.5-2.31c8.513-13.822,20.833-21.266,37.103-20.981
		c16.368,0.287,28.511,8.159,36.493,22.437c1.068,1.911,1.813,3.968,2.588,6.009c0.083,0.218,0.135,0.535,0.451,0.482
		c0.127-0.021,0.25-0.252,0.318-0.412c0.214-0.501,0.389-1.018,0.599-1.52c6.669-15.938,18.52-25.459,35.748-26.848
		c17.672-1.425,31.168,6.195,40.242,21.486c0.325,0.547,0.601,1.123,0.927,1.669c0.08,0.134,0.292,0.301,0.402,0.276
		c0.131-0.03,0.297-0.244,0.311-0.392c0.058-0.632,0.088-1.269,0.088-1.904C1034.869,527.806,1034.867,520.066,1034.867,512.326z"/>
	<path class="st4" d="M1023.18,477.194c-3.369,0-6.739,0.032-10.108-0.016c-1.264-0.018-1.555,0.523-1.389,1.671
		c0.747,5.163,5.942,9.504,11.459,9.533c5.381,0.028,10.567-4.145,11.431-9.198c0.287-1.676,0.115-1.956-1.558-1.978
		C1029.738,477.161,1026.459,477.191,1023.18,477.194z"/>
	<path class="st4" d="M996.449,477.191c-3.278,0-6.557-0.026-9.834,0.01c-1.803,0.02-2.06,0.354-1.611,2.119
		c0.745,2.931,2.338,5.304,4.863,7.017c6.56,4.448,15.818,1.039,17.798-6.554c0.576-2.209,0.33-2.568-1.927-2.587
		C1002.641,477.169,999.545,477.189,996.449,477.191z"/>
	<path class="st4" d="M969.628,477.194c-3.368,0-6.736,0.032-10.104-0.017c-1.235-0.018-1.58,0.46-1.42,1.643
		c0.696,5.141,5.866,9.493,11.417,9.559c5.303,0.063,10.571-4.145,11.47-9.16c0.306-1.707,0.082-2-1.806-2.019
		C976.001,477.166,972.814,477.19,969.628,477.194z"/>
	<path class="st4" d="M942.829,477.191c-3.277,0-6.555-0.026-9.832,0.011c-1.728,0.019-1.913,0.287-1.628,1.895
		c0.907,5.121,5.93,9.22,11.374,9.282c5.308,0.061,10.525-4.116,11.455-9.172c0.314-1.707,0.097-1.989-1.809-2.008
		C949.202,477.166,946.015,477.19,942.829,477.191z"/>
	<path class="st4" d="M916.05,477.191c-3.277,0-6.555-0.026-9.832,0.011c-1.743,0.02-1.923,0.279-1.636,1.889
		c0.918,5.155,5.94,9.253,11.363,9.273c5.394,0.02,10.533-4.077,11.468-9.146c0.315-1.705,0.09-1.999-1.804-2.019
		C922.423,477.166,919.236,477.19,916.05,477.191z"/>
	<path class="st4" d="M889.383,477.192c-3.368,0-6.736-0.029-10.104,0.013c-1.563,0.02-1.741,0.293-1.516,1.771
		c0.768,5.065,5.845,9.295,11.268,9.388c5.492,0.094,10.779-4.144,11.601-9.298c0.254-1.594,0.072-1.844-1.691-1.865
		C895.755,477.164,892.569,477.191,889.383,477.192z"/>
	<path class="st0" d="M988.217,443.638c0.014,6.446-4.697,11.606-10.985,12.034c-6.366,0.434-11.963-4.029-12.766-10.181
		c-0.333-2.555-0.125-2.971,2.207-3.943c4.945-2.061,9.896-4.108,14.856-6.133c2.494-1.018,3.012-0.842,4.55,1.323
		C987.547,438.805,988.312,441.088,988.217,443.638z"/>
	<path class="st6" d="M984.849,443.65c0.074-1.29-0.356-2.561-0.935-3.813c-0.478-1.033-1.126-1.253-2.175-0.807
		c-4.17,1.77-8.344,3.53-12.552,5.206c-1.231,0.49-1.406,1.115-0.989,2.289c1.375,3.867,5.407,6.277,9.495,5.587
		C981.827,451.413,984.833,447.905,984.849,443.65z"/>
	<path class="st0" d="M934.342,455.688c-3.68-0.133-7.436-2.188-9.625-6.574c-2.118-4.244-1.781-8.452,0.907-12.389
		c1.475-2.16,2.094-2.309,4.565-1.298c4.959,2.03,9.91,4.077,14.855,6.14c2.312,0.965,2.462,1.26,2.19,3.677
		C946.567,451.158,941.539,455.636,934.342,455.688z"/>
	<path class="st6" d="M935.483,452.248c3.662-0.045,6.872-2.453,8.027-5.874c0.369-1.092,0.202-1.651-0.889-2.091
		c-4.202-1.692-8.399-3.398-12.552-5.205c-1.409-0.613-1.943-0.014-2.479,1.122C924.967,445.757,929.255,452.324,935.483,452.248z"
		/>
	<path class="st0" d="M499.811,424.039c4.251-0.028,7.677,3.294,7.728,7.494c0.051,4.153-3.394,7.653-7.57,7.693
		c-4.228,0.04-7.583-3.285-7.612-7.544C492.328,427.329,495.51,424.067,499.811,424.039z M499.995,427.322
		c-2.349-0.052-4.385,1.957-4.365,4.309c0.018,2.228,1.948,4.21,4.156,4.27c2.196,0.06,4.265-1.851,4.388-4.052
		C504.302,429.542,502.299,427.373,499.995,427.322z"/>
	<path class="st0" d="M569.479,442.955c0.029,4.295-3.288,7.583-7.633,7.567c-4.334-0.015-7.608-3.318-7.57-7.637
		c0.037-4.122,3.326-7.395,7.508-7.468C566.037,435.343,569.45,438.686,569.479,442.955z M566.186,443.091
		c0.071-2.182-1.832-4.228-4.042-4.346c-2.399-0.128-4.434,1.738-4.499,4.125c-0.064,2.332,1.669,4.196,3.999,4.303
		C564.078,447.286,566.108,445.461,566.186,443.091z"/>
	<path class="st0" d="M552.88,416.092c0.003-3.19,2.341-5.543,5.483-5.518c3.055,0.024,5.578,2.557,5.544,5.566
		c-0.035,3.016-2.609,5.581-5.594,5.573C555.241,421.704,552.877,419.258,552.88,416.092z M558.265,418.267
		c1.204,0.033,2.313-1.05,2.277-2.222c-0.034-1.111-0.981-2.027-2.136-2.068c-1.316-0.047-2.214,0.857-2.189,2.202
		C556.24,417.37,557.089,418.236,558.265,418.267z"/>
	<path class="st0" d="M531.14,404.025c0.051,3.133-2.291,5.618-5.357,5.685c-3.126,0.067-5.567-2.272-5.645-5.411
		c-0.077-3.069,2.324-5.627,5.381-5.732C528.525,398.462,531.09,400.953,531.14,404.025z M527.848,404.044
		c-0.053-1.079-1.067-2.024-2.177-2.029c-1.232-0.005-2.254,1.063-2.184,2.282c0.065,1.131,1.026,2.049,2.147,2.05
		C526.812,406.349,527.905,405.212,527.848,404.044z"/>
	<path class="st0" d="M538.885,423.877c0.013,3.179-2.309,5.583-5.409,5.599c-3.056,0.016-5.549-2.46-5.561-5.523
		c-0.013-3.171,2.289-5.481,5.484-5.503C536.658,418.426,538.872,420.616,538.885,423.877z M535.597,424.051
		c0.075-1.272-0.878-2.272-2.171-2.276c-1.128-0.004-2.135,0.918-2.193,2.007c-0.06,1.131,1.086,2.344,2.218,2.346
		C534.528,426.132,535.532,425.16,535.597,424.051z"/>
	<path class="st0" d="M603.043,445.354c3.155,0.045,5.434,2.413,5.384,5.594c-0.049,3.071-2.552,5.459-5.65,5.39
		c-3.097-0.069-5.456-2.548-5.383-5.655C597.468,447.553,599.847,445.309,603.043,445.354z M605.076,450.941
		c0.062-1.218-0.916-2.28-2.113-2.296c-1.173-0.016-2.273,1.048-2.267,2.193c0.005,1.013,0.989,2.071,2.021,2.172
		C603.856,453.122,605.017,452.104,605.076,450.941z"/>
	<path class="st0" d="M594.085,422.006c0.024,3.169-2.286,5.524-5.441,5.548c-3.154,0.024-5.543-2.325-5.551-5.459
		c-0.008-3.056,2.449-5.582,5.468-5.623C591.593,416.432,594.061,418.904,594.085,422.006z M590.786,421.978
		c-0.054-1.168-1.198-2.226-2.323-2.146c-1.143,0.081-2.171,1.286-2.055,2.409c0.114,1.097,1.073,1.947,2.191,1.941
		C589.86,424.176,590.841,423.186,590.786,421.978z"/>
</g>
</svg>
