<svg height="45" viewBox="0 0 60 60" width="45" xmlns="http://www.w3.org/2000/svg"><g id="Page-1" fill="none" fill-rule="evenodd"><g id="019---Browser-Award" fill-rule="nonzero"><path id="Shape" d="m32 24v15c-.0020003 2.2156656.8174667 4.3534056 2.3 6h-31.3c-1.10320187-.0032948-1.9967052-.8967981-2-2v-34h51v13h-18c-1.1032019.0032948-1.9967052.8967981-2 2z" fill="#f5f5f5"/><path id="Shape" d="m32 24c.0032948-1.1032019.8967981-1.9967052 2-2h-3c-1.1032019.0032948-1.9967052.8967981-2 2v15c-.0020003 2.2156656.8174667 4.3534056 2.3 6h3c-1.4825333-1.6465944-2.3020003-3.7843344-2.3-6z" fill="#cfd8dc"/><path id="Rectangle-path" d="m49 9h3v13h-3z" fill="#cfd8dc"/><path id="Shape" d="m52 3v6h-51v-6c.0032948-1.10320187.89679813-1.9967052 2-2h47c1.1032019.0032948 1.9967052.89679813 2 2z" fill="#607d8b"/><path id="Shape" d="m50 1h-3c1.1032019.0032948 1.9967052.89679813 2 2v6h3v-6c-.0032948-1.10320187-.8967981-1.9967052-2-2z" fill="#37474f"/><rect id="Rectangle-path" fill="#02a9f4" height="5" rx="1" width="18" x="5" y="25"/><path id="Shape" d="m22 25h-3c.5522847 0 1 .4477153 1 1v3c0 .5522847-.4477153 1-1 1h3c.5522847 0 1-.4477153 1-1v-3c0-.5522847-.4477153-1-1-1z" fill="#0377bc"/><path id="Shape" d="m54 24v15c0 4.9705627-4.0294373 9-9 9h-4c-4.9671382-.0082579-8.9917421-4.0328618-9-9v-15c.0032948-1.1032019.8967981-1.9967052 2-2h18c1.1032019.0032948 1.9967052.8967981 2 2z" fill="#ffdc00"/><path id="Rectangle-path" d="m41 48h4v7h-4z" fill="#00bcd4"/><path id="Shape" d="m49 58v1h-12v-1c0-1.6568542 1.3431458-3 3-3h6c1.6568542 0 3 1.3431458 3 3z" fill="#0377bc"/><path id="Shape" d="m43.489 27.294 1.738 3.431c.0812966.1573149.2344356.2648858.41.288l3.9.552c.1997512.0225524.3684183.1586354.4326931.349103.0642747.1904676.01255.4009236-.1326931.539897l-2.831 2.688c-.125105.1174317-.182625.2899916-.153.459l.666 3.788c.0283028.2017449-.0595573.4022093-.2270852.5181251-.1675279.1159157-.3860954.1274744-.5649148.0298749l-3.472-1.778c-.1608342-.0819287-.3511658-.0819287-.512 0l-3.472 1.778c-.1788194.0975995-.3973869.0860408-.5649148-.0298749-.1675279-.1159158-.255388-.3163802-.2270852-.5181251l.666-3.788c.029625-.1690084-.027895-.3415683-.153-.459l-2.831-2.688c-.1452431-.1389734-.1969678-.3494294-.1326931-.539897.0642748-.1904676.2329419-.3265506.4326931-.349103l3.9-.552c.1755644-.0231142.3287034-.1306851.41-.288l1.738-3.431c.0958832-.1817601.2844998-.2955121.49-.2955121s.3941168.113752.49.2955121z" fill="#f5f5f5"/><circle id="Oval" cx="5" cy="5" fill="#f44335" r="1"/><circle id="Oval" cx="9" cy="5" fill="#ffdc00" r="1"/><circle id="Oval" cx="13" cy="5" fill="#60a917" r="1"/><g fill="#000"><path id="Shape" d="m24 6h6c.5522847 0 1-.44771525 1-1s-.4477153-1-1-1h-6c-.5522847 0-1 .44771525-1 1s.4477153 1 1 1z"/><path id="Shape" d="m5 15h2c.55228475 0 1-.4477153 1-1s-.44771525-1-1-1h-2c-.55228475 0-1 .4477153-1 1s.44771525 1 1 1z"/><path id="Shape" d="m11 15h9c.5522847 0 1-.4477153 1-1s-.4477153-1-1-1h-9c-.5522847 0-1 .4477153-1 1s.4477153 1 1 1z"/><path id="Shape" d="m24 15h9c.5522847 0 1-.4477153 1-1s-.4477153-1-1-1h-9c-.5522847 0-1 .4477153-1 1s.4477153 1 1 1z"/><path id="Shape" d="m17 17c-.5522847 0-1 .4477153-1 1s.4477153 1 1 1h2c.5522847 0 1-.4477153 1-1s-.4477153-1-1-1z"/><path id="Shape" d="m23 19h9c.5522847 0 1-.4477153 1-1s-.4477153-1-1-1h-9c-.5522847 0-1 .4477153-1 1s.4477153 1 1 1z"/><path id="Shape" d="m5 19h8c.5522847 0 1-.4477153 1-1s-.4477153-1-1-1h-8c-.55228475 0-1 .4477153-1 1s.44771525 1 1 1z"/><path id="Shape" d="m22 24h-16c-1.1045695 0-2 .8954305-2 2v3c0 1.1045695.8954305 2 2 2h16c1.1045695 0 2-.8954305 2-2v-3c0-1.1045695-.8954305-2-2-2zm-16 5v-3h16v3z"/><path id="Shape" d="m58 26h-3v-2c-.0052514-1.2667854-.8056491-2.3937454-2-2.816v-18.184c0-1.65685425-1.3431458-3-3-3h-47c-1.65685425 0-3 1.34314575-3 3v40c0 1.6568542 1.34314575 3 3 3h30.871c1.6340743 1.6711652 3.8034418 2.7149675 6.129 2.949v5.051c-2.209139 0-4 1.790861-4 4v1c0 .5522847.4477153 1 1 1h12c.5522847 0 1-.4477153 1-1v-1c0-2.209139-1.790861-4-4-4v-5.051c4.7586141-.4860351 8.5092558-4.2693493 8.954-9.032 2.9054921-.4679241 5.0427274-2.9740717 5.046-5.917v-6c0-1.1045695-.8954305-2-2-2zm-55-24h47c.5522847 0 1 .44771525 1 1v5h-49v-5c0-.55228475.44771525-1 1-1zm0 42c-.55228475 0-1-.4477153-1-1v-33h49v11h-17c-1.6568542 0-3 1.3431458-3 3v2h-3c-1.1045695 0-2 .8954305-2 2v6c.0032726 2.9429283 2.1405079 5.4490759 5.046 5.917.1330766 1.4399512.579144 2.8334423 1.307 4.083zm28-6.126c-1.7648012-.4585803-2.9976452-2.0505929-3-3.874v-6h3zm17 20.126h-10c0-1.1045695.8954305-2 2-2h6c1.1045695 0 2 .8954305 2 2zm-6-4v-5h2v5zm3-7h-4c-4.4162219-.0049599-7.9950401-3.5837781-8-8v-15c0-.5522847.4477153-1 1-1h18c.5522847 0 1 .4477153 1 1v15c-.0049599 4.4162219-3.5837781 7.9950401-8 8zm13-13c-.0023548 1.8234071-1.2351988 3.4154197-3 3.874v-9.874h3z"/><path id="Shape" d="m49.675 30.575-3.666-.519-1.627-3.214c-.266957-.516687-.7999232-.8412194-1.3815-.8412194s-1.114543.3245324-1.3815.8412194l-1.627 3.214-3.667.519c-.5856248.0781279-1.0736319.4870724-1.253 1.05-.1782335.5517722-.0224855 1.1568531.4 1.554l2.641 2.509-.621 3.528c-.0991647.5671611.1337222 1.1412274.6 1.479.2667785.1985575.5904405.3058604.923.306.2482916-.0007275.4929121-.0599983.714-.173l3.271-1.677 3.272 1.677c.5262904.2719216 1.1615075.2203126 1.637-.133.4674572-.3368474.7006554-.911681.6-1.479l-.62-3.528 2.641-2.509c.4224855-.3971469.5782335-1.0022278.4-1.554-.1796747-.5635187-.6686173-.9725942-1.255-1.05zm-3.356 3.842c-.3685118.3479693-.5375741.8577863-.45 1.357l.5 2.857-2.66-1.362c-.4472956-.2279661-.9767044-.2279661-1.424 0l-2.66 1.362.5-2.858c.0865985-.4990327-.082763-1.0082437-.451-1.356l-2.1-2 2.926-.417c.4998076-.0682215.9345812-.3767464 1.164-.826l1.336-2.632 1.336 2.637c.2303856.4475583.6650826.7541616 1.164.821l2.928.414z"/></g></g></g></svg>
