<svg id="Capa_1" enable-background="new 0 0 507.807 507.807" height="40" viewBox="0 0 507.807 507.807" width="40" xmlns="http://www.w3.org/2000/svg"><g><path d="m258.119 284.182c70.37-71.734 151.548-145.148 159.996-136.7 15.741-15.741 41.527 2.126 32.36 22.412-26.58 58.82-64.041 113.921-112.381 162.26s-139.825 13.039-79.975-47.972zm34.346-272.298c-58.82 26.58-113.921 64.041-162.26 112.381-28.692 28.692-53.552 59.766-74.578 92.586-7.216 11.264-6.1 25.974 2.757 35.999 10.739 12.155 22.404 20.789 31.324 31.35 76.908-64.11 236.497-228.628 225.17-239.955 15.74-15.742-2.127-41.528-22.413-32.361z" fill="#ffcd69"/><path d="m130.205 366.095c-9.373 9.373-43.314-24.569-33.941-33.941 70.3-90.92 150.91-171.53 241.831-241.831 9.373-9.373 24.569-9.373 33.941 0s9.373 24.569 0 33.941c-69.997 91.225-150.607 171.835-241.831 241.831z" fill="#fff3da"/><path d="m352.236 35.169c11.325 11.325 11.325 29.687 0 41.012-7.003 7.003-154.418 154.418-161.421 161.421-11.325 11.325-20.857-29.426-22.661-41.624-1.657-9.057 1.01-18.749 8.012-25.752 7.003-7.003 16.695-9.67 25.752-8.012-1.657-9.057 1.01-18.749 8.012-25.752 7.003-7.003 16.695-9.67 25.752-8.012-1.657-9.057 1.01-18.749 8.012-25.752 7.003-7.003 16.695-9.67 25.752-8.012-1.657-9.057 1.01-18.749 8.012-25.752s16.695-9.67 25.752-8.012c-1.657-9.057 1.01-18.749 8.012-25.752 11.327-11.326 29.689-11.326 41.014-.001zm-18.327 191.507c9.057 1.657 18.749-1.01 25.752-8.012 7.003-7.003 9.67-16.695 8.012-25.752 9.057 1.657 18.749-1.01 25.752-8.012 7.003-7.003 9.67-16.695 8.012-25.752 9.057 1.657 18.749-1.01 25.752-8.012 11.325-11.325 11.325-29.687 0-41.012s-29.687-11.325-41.012 0c-7.003 7.003-105.345 105.345-112.348 112.348-11.324 11.323 61.738 13.26 60.08 4.204z" fill="#ffc144"/><path d="m441.07 277.964c0 22.108-374.333 22.108-374.333 0-22.261 0-27.86-30.868-7.034-38.73 60.387-22.797 125.838-35.27 194.201-35.27s133.814 12.473 194.201 35.27c20.825 7.862 15.226 38.73-7.035 38.73zm-381.367 184.729c60.387 22.797 125.838 35.27 194.201 35.27s133.814-12.473 194.201-35.27c20.826-7.862 15.226-38.73-7.034-38.73 0-20.473-374.333-20.473-374.333 0-22.262.001-27.861 30.868-7.035 38.73z" fill="#e0ef9b"/><path d="m424.904 326.964c13.255 0 24 10.745 24 24s-10.745 24-24 24c-114 14.581-228 14.581-342 0-13.255 0-24-10.745-24-24s10.745-24 24-24c114-15.011 228-15.011 342 0z" fill="#fff3da"/><path d="m33.904 403.964c0-16.016 12.984-29 29-29h382c16.016 0 29 12.984 29 29s-12.984 29-29 29c-9.904 0-18.643-4.968-23.875-12.544-5.232 7.576-13.971 12.544-23.875 12.544s-18.643-4.968-23.875-12.544c-5.232 7.576-13.971 12.544-23.875 12.544s-18.643-4.968-23.875-12.544c-5.232 7.576-13.971 12.544-23.875 12.544s-18.643-4.968-23.875-12.544c-5.232 7.576-13.971 12.544-23.875 12.544s-18.643-4.968-23.875-12.544c-5.232 7.576-13.971 12.544-23.875 12.544s-18.643-4.968-23.875-12.544c-5.232 7.576-13.971 12.544-23.875 12.544s-18.643-4.968-23.875-12.544c-5.232 7.576-13.971 12.544-23.875 12.544s-18.643-4.968-23.875-12.544c-5.232 7.576-13.971 12.544-23.875 12.544-16.016 0-29-12.984-29-29zm411-135c-9.904 0-18.643 4.968-23.875 12.544-5.232-7.576-13.971-12.544-23.875-12.544s-18.643 4.968-23.875 12.544c-5.232-7.576-13.971-12.544-23.875-12.544s-18.643 4.968-23.875 12.544c-5.232-7.576-13.971-12.544-23.875-12.544s-18.643 4.968-23.875 12.544c-5.232-7.576-13.971-12.544-23.875-12.544s-18.643 4.968-23.875 12.544c-5.232-7.576-13.971-12.544-23.875-12.544s-18.643 4.968-23.875 12.544c-5.232-7.576-13.971-12.544-23.875-12.544s-18.643 4.968-23.875 12.544c-5.232-7.576-13.971-12.544-23.875-12.544s-18.643 4.968-23.875 12.544c-5.232-7.576-13.971-12.544-23.875-12.544-16.016 0-29 12.984-29 29s12.984 29 29 29h382c16.016 0 29-12.984 29-29s-12.984-29-29-29z" fill="#cbe558"/><path d="m295.64 497.061c0 5.522-4.476 9.998-9.998 9.998s-9.998-4.476-9.998-9.998 4.476-9.998 9.998-9.998c5.522.001 9.998 4.477 9.998 9.998zm-187.243-339.717c5.523 0 10-4.477 10-10s-4.477-10-10-10-10 4.477-10 10 4.477 10 10 10zm375.507 246.62c0 12.219-5.652 23.138-14.474 30.294 4.255 13.117.671 30.725-17.796 37.786-38.52 14.729-78.901 24.838-119.83 30.54-13.47 1.877-16.23-17.933-2.76-19.81 39.459-5.497 78.302-15.465 115.53-29.44 6.046-2.27 7.1-7.001 6.428-10.85-1.988.314-4.024.48-6.098.48-8.75 0-17.123-2.941-23.875-8.17-6.752 5.229-15.125 8.17-23.875 8.17s-17.123-2.941-23.875-8.17c-6.752 5.229-15.125 8.17-23.875 8.17s-17.123-2.941-23.875-8.17c-6.752 5.229-15.125 8.17-23.875 8.17s-17.123-2.941-23.875-8.17c-6.752 5.229-15.125 8.17-23.875 8.17s-17.123-2.941-23.875-8.17c-6.752 5.229-15.125 8.17-23.875 8.17s-17.123-2.941-23.875-8.17c-6.752 5.229-15.125 8.17-23.875 8.17s-17.123-2.941-23.875-8.17c-6.752 5.229-15.125 8.17-23.875 8.17s-17.123-2.941-23.875-8.17c-6.752 5.229-15.125 8.17-23.875 8.17-2.069 0-4.1-.165-6.082-.477-1.165 5.976 3.633 9.801 6.412 10.847 56.782 21.372 116.541 33.012 177.66 34.48 13.389.322 12.909 20.312-.48 19.99-63.379-1.523-125.456-13.303-184.24-35.76-14.621-5.586-23.423-21.564-17.727-37.733-8.861-7.155-14.543-18.098-14.543-30.348 0-17.939 12.178-33.078 28.698-37.609-4.924-8.101-4.73-22.133 0-30.782-16.52-4.531-28.698-19.67-28.698-37.609 0-12.216 5.649-23.132 14.468-30.289-2.702-8.346-2.279-18.614 3.264-26.77-2.712-13.311 1.965-23.827 5.599-29.491 7.71-12.03 15.986-23.922 24.62-35.35 7.999-10.586 23.959 1.473 15.96 12.06-8.311 11-16.301 22.47-23.74 34.08-1.134 1.765-1.966 3.679-2.501 5.672 31.699-11.596 64.237-20.247 97.383-25.906-.262-1.771-.504-3.371-.668-4.364-2.097-12.706 1.944-25.585 10.809-34.45 6.188-6.188 14.187-10.028 22.658-11.105 1.077-8.472 4.918-16.471 11.105-22.659 6.188-6.188 14.188-10.028 22.659-11.105 1.077-8.472 4.918-16.471 11.105-22.659 6.188-6.187 14.188-10.028 22.659-11.105 1.077-8.472 4.918-16.472 11.105-22.659 6.187-6.188 14.187-10.028 22.658-11.105 1.077-8.472 4.918-16.471 11.105-22.659 1.451-1.451 2.989-2.76 4.597-3.934-2.895-4.2-7.926-5.072-12.166-3.17-55.36 24.835-105.756 59.054-150 101.25-9.518 9.078-23.318-5.392-13.8-14.47 45.877-43.753 98.274-78.939 155.55-105 11.635-5.294 24.054-2.81 33.271 5.75 2.589 2.405 4.639 5.262 6.154 8.376 11.266-1.144 22.938 2.586 31.551 11.198 12.685 12.685 14.778 32.001 6.301 46.887 11.166 2.753 19.166 13.334 21.785 21.755 14.884-8.464 34.189-6.367 46.867 6.311 8.644 8.644 12.367 20.369 11.184 31.673 17.751 8.191 19.447 28.189 14.144 39.286-7.983 16.706-16.318 33.427-25.524 49.546 5.887 2.003 11.747 4.105 17.572 6.322 18.738 7.13 21.986 25.04 17.873 37.855 8.776 7.157 14.394 18.048 14.394 30.23 0 17.939-12.178 33.078-28.698 37.609 5.021 7.972 4.924 21.811 0 30.782 16.519 4.53 28.697 19.67 28.697 37.609zm-49.643-245.758c-6.188 6.187-14.188 10.028-22.659 11.105-1.077 8.472-4.918 16.472-11.105 22.659-6.192 6.191-14.199 10.033-22.677 11.107-.192 1.499-.475 2.985-.837 4.451 12.644 2.838 25.193 6.1 37.627 9.811 9.859-16.648 18.98-33.899 26.755-51.565 2.663-6.052.058-10.063-3.11-12.25-1.19 1.639-2.518 3.206-3.994 4.682zm-120.901 38.876c14.774 1.556 29.447 3.696 43.997 6.414.826-2.83 1.017-5.846.479-8.784-.591-3.232.442-6.548 2.766-8.872 2.324-2.323 5.64-3.356 8.872-2.765 6.153 1.125 12.467-.835 16.88-5.247s6.374-10.723 5.247-16.881c-.591-3.231.442-6.548 2.766-8.871 2.323-2.323 5.641-3.355 8.871-2.766 6.154 1.128 12.468-.834 16.881-5.247 7.408-7.408 7.408-19.462 0-26.87-7.406-7.408-19.461-7.408-26.871 0zm31.805-99.687c-.001.001-.001.001-.002.002-8.613 8.613-96.596 96.596-96.596 96.596 4.853-.304 27.592.301 38.65.948l77.756-77.757c13.175-13.187-6.633-32.976-19.808-19.789zm-167.144 96.955c.178 1.082.434 2.765.707 4.608 13.422-1.799 26.936-3.108 40.524-3.935l125.914-125.914c7.407-7.407 7.407-19.461-.001-26.869-7.407-7.407-19.461-7.409-26.87 0-4.413 4.412-6.374 10.723-5.246 16.88.592 3.232-.442 6.548-2.766 8.872s-5.639 3.359-8.872 2.766c-6.16-1.126-12.469.834-16.88 5.247-4.413 4.413-6.374 10.723-5.247 16.881.591 3.231-.442 6.548-2.766 8.871s-5.64 3.358-8.871 2.765c-6.16-1.128-12.469.835-16.881 5.248-4.413 4.412-6.374 10.723-5.247 16.881.591 3.232-.442 6.548-2.766 8.871s-5.639 3.359-8.872 2.765c-6.154-1.126-12.468.834-16.88 5.247-4.413 4.412-6.374 10.722-5.246 16.88.592 3.232-.442 6.548-2.766 8.872-2.323 2.324-5.641 3.358-8.872 2.766-6.159-1.127-12.469.834-16.88 5.247-4.379 4.379-6.282 10.595-5.216 17.051zm-121.03 65.061c1.929-.294 3.903-.448 5.913-.448 8.75 0 17.123 2.941 23.875 8.169 6.752-5.229 15.125-8.169 23.875-8.169s17.123 2.941 23.875 8.169c6.752-5.229 15.125-8.169 23.875-8.169s17.123 2.941 23.875 8.169c6.752-5.229 15.125-8.169 23.875-8.169s17.123 2.941 23.875 8.169c6.752-5.229 15.125-8.169 23.875-8.169s17.123 2.941 23.875 8.169c6.752-5.229 15.125-8.169 23.875-8.169s17.123 2.941 23.875 8.169c6.752-5.229 15.125-8.169 23.875-8.169s17.123 2.941 23.875 8.169c6.752-5.229 15.125-8.169 23.875-8.169s17.123 2.941 23.875 8.169c6.752-5.229 15.125-8.169 23.875-8.169 2.028 0 4.02.156 5.965.456 1.291-6.338-3.652-9.833-6.296-10.831-60.86-22.976-125.011-34.625-190.669-34.625s-129.809 11.65-190.669 34.625c-2.655 1.003-7.566 4.377-6.244 10.823zm5.913 57.553h382c10.477 0 19-8.523 19-19s-8.523-19-19-19c-6.239 0-12.089 3.075-15.646 8.227-1.867 2.703-4.943 4.317-8.229 4.317s-6.361-1.614-8.229-4.317c-3.558-5.151-9.407-8.227-15.646-8.227s-12.089 3.075-15.646 8.227c-1.867 2.703-4.943 4.317-8.229 4.317s-6.361-1.614-8.229-4.317c-3.558-5.151-9.407-8.227-15.646-8.227s-12.089 3.075-15.646 8.227c-1.867 2.703-4.943 4.317-8.229 4.317s-6.361-1.614-8.229-4.317c-3.558-5.151-9.407-8.227-15.646-8.227s-12.089 3.075-15.646 8.227c-1.867 2.703-4.943 4.317-8.229 4.317s-6.361-1.614-8.229-4.317c-3.558-5.151-9.407-8.227-15.646-8.227s-12.089 3.075-15.646 8.227c-1.867 2.703-4.943 4.317-8.229 4.317s-6.361-1.614-8.229-4.317c-3.558-5.151-9.407-8.227-15.646-8.227s-12.089 3.075-15.646 8.227c-1.867 2.703-4.943 4.317-8.229 4.317s-6.361-1.614-8.229-4.317c-3.558-5.151-9.407-8.227-15.646-8.227s-12.089 3.075-15.646 8.227c-1.867 2.703-4.943 4.317-8.229 4.317s-6.361-1.614-8.229-4.317c-3.558-5.151-9.407-8.227-15.646-8.227s-12.089 3.075-15.646 8.227c-1.867 2.703-4.943 4.317-8.229 4.317s-6.361-1.614-8.229-4.317c-3.558-5.151-9.407-8.227-15.646-8.227-10.477 0-19 8.523-19 19s8.523 19 19 19zm362 20h-342c-18.667 0-18.667 28 0 28h342c18.666 0 18.666-28 0-28zm20 86c10.477 0 19-8.523 19-19s-8.523-19-19-19h-382c-10.477 0-19 8.523-19 19s8.523 19 19 19c6.24 0 12.089-3.075 15.646-8.227 1.867-2.704 4.943-4.317 8.229-4.317s6.361 1.614 8.229 4.317c3.558 5.151 9.406 8.227 15.646 8.227s12.089-3.075 15.646-8.227c1.867-2.704 4.943-4.317 8.229-4.317s6.361 1.614 8.229 4.317c3.558 5.151 9.406 8.227 15.646 8.227s12.089-3.075 15.646-8.227c1.867-2.704 4.943-4.317 8.229-4.317s6.361 1.614 8.229 4.317c3.558 5.151 9.406 8.227 15.646 8.227s12.089-3.075 15.646-8.227c1.867-2.704 4.943-4.317 8.229-4.317s6.361 1.614 8.229 4.317c3.558 5.151 9.406 8.227 15.646 8.227s12.089-3.075 15.646-8.227c1.867-2.704 4.943-4.317 8.229-4.317s6.361 1.614 8.229 4.317c3.558 5.151 9.406 8.227 15.646 8.227s12.089-3.075 15.646-8.227c1.867-2.704 4.943-4.317 8.229-4.317s6.361 1.614 8.229 4.317c3.558 5.151 9.406 8.227 15.646 8.227s12.089-3.075 15.646-8.227c1.867-2.704 4.943-4.317 8.229-4.317s6.361 1.614 8.229 4.317c3.558 5.151 9.406 8.227 15.646 8.227s12.089-3.075 15.646-8.227c1.867-2.704 4.943-4.317 8.229-4.317s6.361 1.614 8.229 4.317c3.557 5.151 9.405 8.227 15.646 8.227z"/></g></svg>
