<?xml version="1.0" encoding="iso-8859-1"?>
<!-- Generator: Adobe Illustrator 19.0.0, SVG Export Plug-In . SVG Version: 6.00 Build 0)  -->
<svg version="1.1" id="Capa_1" xmlns="http://www.w3.org/2000/svg" xmlns:xlink="http://www.w3.org/1999/xlink" x="0px" y="0px"
	 viewBox="0 0 512 512" width="30px" height="30px" style="enable-background:new 0 0 512 512;" xml:space="preserve">
<g>
	<path style="fill:#FFECBA;" d="M472.615,226.462H39.385c-16.314,0-29.538-13.224-29.538-29.538l0,0
		c0-16.314,13.224-29.538,29.538-29.538h433.231c16.314,0,29.538,13.224,29.538,29.538l0,0
		C502.154,213.237,488.929,226.462,472.615,226.462z"/>
	<path style="fill:#FFECBA;" d="M472.615,344.615H39.385c-16.314,0-29.538-13.224-29.538-29.538l0,0
		c0-16.314,13.224-29.538,29.538-29.538h433.231c16.314,0,29.538,13.224,29.538,29.538l0,0
		C502.154,331.391,488.929,344.615,472.615,344.615z"/>
</g>
<g>
	<path style="fill:#F6A9CE;" d="M452.595,285.538H59.405c-16.314,0-29.538-13.224-29.538-29.538l0,0
		c0-16.314,13.224-29.538,29.538-29.538h393.189c16.314,0,29.538,13.224,29.538,29.538l0,0
		C482.134,272.314,468.908,285.538,452.595,285.538z"/>
	<path style="fill:#F6A9CE;" d="M472.615,167.385H39.385l0,0c0-65.254,52.899-118.154,118.154-118.154h196.923
		C419.716,49.231,472.615,102.13,472.615,167.385L472.615,167.385z"/>
	<path style="fill:#F6A9CE;" d="M472.615,344.615H39.385l0,0c0,65.254,52.899,118.154,118.154,118.154h196.923
		C419.716,462.769,472.615,409.87,472.615,344.615L472.615,344.615z"/>
</g>
<path d="M485.362,277.821c4.177-6.251,6.618-13.755,6.618-21.821s-2.441-15.571-6.618-21.821c15.477-5.311,26.638-20,26.638-37.256
	c0-18.425-12.72-33.93-29.839-38.208c-0.782-11.632-3.123-22.841-6.819-33.424c-0.117-0.41-0.255-0.809-0.421-1.194
	c-17.784-49.341-65.065-84.712-120.459-84.712H157.538c-67.666,0-123.227,52.779-127.7,119.33C12.72,162.993,0,178.498,0,196.923
	c0,17.256,11.161,31.945,26.638,37.256C22.461,240.43,20.02,247.934,20.02,256c0,8.066,2.441,15.571,6.618,21.821
	C11.161,283.132,0,297.821,0,315.077c0,18.425,12.72,33.93,29.839,38.208c0.782,11.632,3.123,22.841,6.819,33.424
	c0.117,0.41,0.255,0.809,0.421,1.194c17.784,49.341,65.065,84.712,120.459,84.712h196.923c67.666,0,123.227-52.779,127.7-119.33
	C499.28,349.007,512,333.502,512,315.077C512,297.821,500.839,283.132,485.362,277.821z M39.712,256
	c0-10.858,8.834-19.692,19.692-19.692h393.19c10.858,0,19.692,8.834,19.692,19.692c0,10.858-8.834,19.692-19.692,19.692H59.405
	C48.546,275.692,39.712,266.858,39.712,256z M157.538,59.077h196.923c42.006,0,78.496,24.037,96.453,59.077h-37.376
	c-5.437,0-9.846,4.408-9.846,9.846s4.409,9.846,9.846,9.846h45.135c1.802,6.349,3.041,12.931,3.653,19.692H49.674
	C54.663,102.412,101.135,59.077,157.538,59.077z M19.692,196.923c0-10.858,8.834-19.692,19.692-19.692h433.231
	c10.858,0,19.692,8.834,19.692,19.692s-8.834,19.692-19.692,19.692h-20.02H59.405h-20.02
	C28.526,216.615,19.692,207.781,19.692,196.923z M354.462,452.923H157.538c-42.006,0-78.496-24.037-96.453-59.077h37.376
	c5.437,0,9.846-4.408,9.846-9.846s-4.409-9.846-9.846-9.846H53.327c-1.802-6.349-3.041-12.931-3.653-19.692h412.652
	C457.337,409.588,410.865,452.923,354.462,452.923z M472.615,334.769H39.385c-10.858,0-19.692-8.834-19.692-19.692
	c0-10.858,8.834-19.692,19.692-19.692h20.02h393.19h20.02c10.858,0,19.692,8.834,19.692,19.692
	C492.308,325.935,483.474,334.769,472.615,334.769z"/>
<path d="M128,393.846c2.59,0,5.13-1.054,6.96-2.885c1.831-1.831,2.886-4.372,2.886-6.961s-1.054-5.13-2.886-6.961
	c-1.83-1.831-4.371-2.885-6.96-2.885c-2.59,0-5.13,1.054-6.961,2.885c-1.831,1.831-2.885,4.372-2.885,6.961s1.053,5.13,2.885,6.961
	C122.871,392.793,125.41,393.846,128,393.846z"/>
<path d="M384,118.154c-2.59,0-5.13,1.054-6.961,2.885c-1.831,1.831-2.885,4.372-2.885,6.961s1.053,5.13,2.885,6.961
	c1.832,1.831,4.372,2.885,6.961,2.885s5.13-1.054,6.96-2.885c1.831-1.831,2.886-4.372,2.886-6.961s-1.054-5.13-2.886-6.961
	C389.13,119.207,386.59,118.154,384,118.154z"/>
<g>
</g>
<g>
</g>
<g>
</g>
<g>
</g>
<g>
</g>
<g>
</g>
<g>
</g>
<g>
</g>
<g>
</g>
<g>
</g>
<g>
</g>
<g>
</g>
<g>
</g>
<g>
</g>
<g>
</g>
</svg>
