<svg height="200px" viewBox="0 0 60 60" width="200px" xmlns="http://www.w3.org/2000/svg"><g id="Page-1" fill="none" fill-rule="evenodd"><g id="012---Horror-Book" fill-rule="nonzero" transform="translate(-1 -1)"><path id="Rectangle-path" d="m50 46h4v14h-4z" fill="#ff9801"/><path id="Rectangle-path" d="m8 46h4v14h-4z" fill="#ff9801"/><path id="Rectangle-path" d="m12 46h38v14h-38z" fill="#ffdc00"/><path id="Shape" d="m8 46v14h-4c-1.10320187-.0032948-1.9967052-.8967981-2-2v-10c.0032948-1.1032019.89679813-1.9967052 2-2z" fill="#ffdc00"/><path id="Shape" d="m60 48v10c-.0032948 1.1032019-.8967981 1.9967052-2 2h-4v-14h4c1.1032019.0032948 1.9967052.8967981 2 2z" fill="#ffdc00"/><path id="Shape" d="m58 46h-3c1.1032019.0032948 1.9967052.8967981 2 2v10c-.0032948 1.1032019-.8967981 1.9967052-2 2h3c1.1032019-.0032948 1.9967052-.8967981 2-2v-10c-.0032948-1.1032019-.8967981-1.9967052-2-2z" fill="#fec108"/><rect id="Rectangle-path" fill="#f5f5f5" height="4" rx="1" width="14" x="16" y="51"/><path id="Shape" d="m54 18c-2.236-2.236 2-2 2-4s-1-3-8-2c-2.2220137.2736228-4.3313644 1.1329623-6.112 2.49.6129883-4.2627339-1.3179702-8.49111401-4.9408804-10.81945607-3.6229101-2.32834206-8.2713291-2.32834206-11.8942392 0-3.6229102 2.32834206-5.5538687 6.55672217-4.9408804 10.81945607-1.7806356-1.3570377-3.8899863-2.2163772-6.112-2.49-7-1-8 0-8 2s4.236 1.764 2 4c-2 2-4.884 7.837-2 10 4 3 5-2 8-2s-2.721 4.519 1 7c3 2 6-2 6-2s1 5 4 8c2.0142529 1.8721949 3.4096528 4.3141447 4 7h4c.5903472-2.6858553 1.9857471-5.1278051 4-7 3-3 4-8 4-8s3 4 6 2c3.721-2.481-2-7 1-7s4 5 8 2c2.884-2.163 0-8-2-10z" fill="#f5f5f5"/><path id="Shape" d="m39 13c-.0038029.4986194-.0412211.996415-.112 1.49.9408382-.7269115 1.9859235-1.3077766 3.1-1.723-.0422748-3.14353647-1.4380575-6.1161643-3.829844-8.15649911-2.3917864-2.04033482-5.5472426-2.95018204-8.658156-2.49650089 5.4414773.74593813 9.4974303 5.39363323 9.5 10.886z" fill="#cfd8dc"/><path id="Shape" d="m45 26c-3 0 2.721 4.519-1 7-.1097799.0682854-.2232902.1303822-.34.186 1.0628028.5570304 2.3456175.4855923 3.34-.186 2.712-1.808.419-4.691.131-6.126-.5891959-.5269163-1.3415017-.8354641-2.131-.874z" fill="#cfd8dc"/><path id="Shape" d="m54 18c-2.236-2.236 2-2 2-4 0-1.7-.738-2.673-5.257-2.313 1.877.249 2.257 1.094 2.257 2.313 0 2-4.236 1.764-2 4 2 2 4.884 7.837 2 10-.2532561.1910621-.5206962.3625581-.8.513.988.591 2.133.74 3.8-.513 2.884-2.163 0-8-2-10z" fill="#cfd8dc"/><path id="Shape" d="m38 31s-1 5-4 8c-2.0142529 1.8721949-3.4096528 4.3141447-4 7h3c.5903472-2.6858553 1.9857471-5.1278051 4-7 1.5606433-1.7025735 2.7266593-3.7283342 3.415-5.933-.9314263-.5258697-1.7516604-1.2279086-2.415-2.067z" fill="#cfd8dc"/><ellipse id="Oval" cx="26.245" cy="10.283" fill="#f44335" rx="2.5" ry="2" transform="matrix(.679 -.734 .734 .679 .87 22.557)"/><ellipse id="Oval" cx="35.755" cy="10.283" fill="#f44335" rx="2" ry="2.5" transform="matrix(.734 -.679 .679 .734 2.531 27.026)"/><ellipse id="Oval" cx="31" cy="18" fill="#607d8b" rx="3" ry="4"/><g fill="#000"><path id="Shape" d="m58 45h-23.708c.7185539-2.0022875 1.8868483-3.8130583 3.415-5.293 1.7640887-1.9259408 3.0639469-4.2301104 3.8-6.736 1.538 1.305 3.829 2.341 6.051.861 2.768-1.845 1.572-4.641.929-6.143-.089-.21-.2-.462-.277-.676.7769048.2147517 1.4769851.6454103 2.019 1.242 1.384 1.209 3.28 2.866 6.374.545.9731754-.7544831 1.5596668-1.9032733 1.6-3.134.211-2.972-1.894-6.772-3.5-8.373-.1104168-.1065958-.2108364-.2230825-.3-.348.1924095-.1312151.3916936-.2520541.597-.362.8-.455 2-1.142 2-2.583.0679578-.9212209-.2793831-1.8246006-.947-2.463-1.21-1.048-3.507-1.2-8.195-.527-1.7020054.2274298-3.3496136.7574415-4.865 1.565-.2208887-6.4641293-5.5250978-11.59018175-11.993-11.59018175s-11.7721113 5.12605245-11.993 11.59018175c-1.5153864-.8075585-3.1629946-1.3375702-4.865-1.565-4.688-.67-6.986-.522-8.195.527-.66761687.6383994-1.01495776 1.5417791-.947 2.463 0 1.441 1.206 2.128 2 2.583.20224054.1102235.39851429.2310587.588.362-.08916361.1249175-.18958321.2414042-.3.348-1.6 1.6-3.707 5.4-3.5 8.373.04323998 1.2327459.63431439 2.3818943 1.612 3.134 3.093 2.32 4.99.665 6.374-.545.5420149-.5965897 1.2420952-1.0272483 2.019-1.242-.08.214-.188.466-.277.676-.643 1.5-1.839 4.3.929 6.143 2.221 1.481 4.512.444 6.051-.861.7360531 2.5058896 2.0359113 4.8100592 3.8 6.736 1.5212604 1.4834581 2.6852727 3.293422 3.404 5.293h-23.7c-1.65685425 0-3 1.3431458-3 3v10c0 1.6568542 1.34314575 3 3 3h54c1.6568542 0 3-1.3431458 3-3v-10c0-1.6568542-1.3431458-3-3-3zm-5 14h-2v-12h2zm-24-12h20v12h-36v-12zm-3.293-8.707c-2.743-2.743-3.717-7.443-3.727-7.493-.0786662-.3858141-.3764165-.6895517-.7605882-.7758824-.3841718-.0863307-.7832446.0608173-1.0194118.3758824-.024.033-2.458 3.226-4.645 1.768-1.193-.795-1.036-1.739-.2-3.692.428-1 .832-1.943.3-2.745-.3860041-.5161553-1.0134919-.7933115-1.655-.731-1.3599494.1119856-2.6263175.737304-3.542 1.749-1.33 1.16-2.062 1.8-3.858.451-.51038031-.4070101-.80775124-1.024202-.808-1.677-.16-2.256 1.59-5.491 2.915-6.816.60326952-.5089931.94492183-1.2628324.93-2.052-.128-.947-.968-1.425-1.643-1.81-.582-.331-.994-.586-.994-.845 0-.641.124-.836.258-.953.451-.391 1.963-.718 6.6-.057 2.0494909.2519226 3.9959356 1.0412643 5.642 2.288.3204651.2506355.7608276.2821405 1.1137088.0796785.3528812-.2024621.5479294-.5985276.4932912-1.0016785-.5636997-3.8780009 1.1896787-7.72787107 4.4852526-9.84821095 3.2955739-2.12033987 7.5259209-2.12033987 10.8214948 0 3.2955739 2.12033988 5.0489523 5.97021005 4.4852526 9.84821095-.0546382.4031509.14041.7992164.4932912 1.0016785.3528812.202462.7932437.170957 1.1137088-.0796785 1.6452083-1.2462488 3.5905559-2.0355652 5.639-2.288 4.635-.662 6.149-.334 6.6.057.134.117.258.312.258.953 0 .259-.412.514-.994.845-.675.385-1.515.863-1.643 1.81-.0149218.7891676.3267305 1.5430069.93 2.052 1.325 1.325 3.075 4.56 2.915 6.816-.0009765.6533049-.2994953 1.2705874-.811 1.677-1.8 1.347-2.529.71-3.858-.451-.9156825-1.011696-2.1820506-1.6370144-3.542-1.749-.6421891-.063036-1.2706115.214198-1.657.731-.529.8-.125 1.746.3 2.745.835 1.953.992 2.9-.2 3.692-2.17 1.448-4.543-1.638-4.643-1.768-.2361672-.3150651-.63524-.4622131-1.0194118-.3758824-.3841717.0863307-.681922.3900683-.7605882.7758824-.01.047-.973 4.735-3.727 7.489-1.9173017 1.8489576-3.3267914 4.1599974-4.093 6.711h-2.4c-.7668302-2.549567-2.1762794-4.8591628-4.093-6.707zm-22.707 19.707v-10c0-.5522847.44771525-1 1-1h3v12h-3c-.55228475 0-1-.4477153-1-1zm6-11h2v12h-2zm50 11c0 .5522847-.4477153 1-1 1h-3v-12h3c.5522847 0 1 .4477153 1 1z"/><path id="Shape" d="m17 56h12c1.1045695 0 2-.8954305 2-2v-2c0-1.1045695-.8954305-2-2-2h-12c-1.1045695 0-2 .8954305-2 2v2c0 1.1045695.8954305 2 2 2zm0-4h12v2h-12z"/><path id="Shape" d="m46 57c.5522847 0 1-.4477153 1-1v-6c0-.5522847-.4477153-1-1-1s-1 .4477153-1 1v6c0 .5522847.4477153 1 1 1z"/><path id="Shape" d="m42 55c.5522847 0 1-.4477153 1-1v-2c0-.5522847-.4477153-1-1-1s-1 .4477153-1 1v2c0 .5522847.4477153 1 1 1z"/><path id="Shape" d="m28.622 7.714c-1.4150105-1.10394164-3.4541798-.86747104-4.579.531-1.3084531 1.22923153-1.3868563 3.281524-.176 4.607 1.4126234 1.1124125 3.4584421.8751708 4.579-.531 1.3084531-1.2292315 1.3868563-3.28152396.176-4.607zm-1.643 3.248c-.445.481-1.3.845-1.753.422-.391-.362-.258-1.194.285-1.78.465-.5 1.31-.83 1.753-.422.39.362.257 1.194-.285 1.78z"/><path id="Shape" d="m38.133 12.852c1.2108563-1.325476 1.1324531-3.37776847-.176-4.607-1.1248202-1.39847104-3.1639895-1.63494164-4.579-.531-1.2108563 1.32547604-1.1324531 3.3777685.176 4.607 1.1179581 1.4108474 3.1678372 1.6485599 4.579.531zm-3.4-3.67c.451-.417 1.3-.064 1.753.422.543.586.676 1.418.285 1.78-.453.418-1.3.068-1.753-.422-.539-.586-.672-1.418-.282-1.78z"/><path id="Shape" d="m35 18c0-2.757-1.794-5-4-5s-4 2.243-4 5 1.794 5 4 5 4-2.243 4-5zm-4 3c-1.084 0-2-1.374-2-3s.916-3 2-3 2 1.374 2 3-.916 3-2 3z"/><path id="Shape" d="m19.946 43h.054c.5318658.000776.9712798-.4149097 1-.946.0375552-1.0704993-.3364013-2.1147148-1.045-2.918-.779398-.7804844-1.8534909-1.1934014-2.955-1.136-2.6 0-3.274-.784-4.105-2.447-.2468713-.4942949-.8477051-.6948713-1.342-.448s-.6948713.8477051-.448 1.342c1.125 2.253 2.451 3.553 5.895 3.553.5454339-.0447572 1.0853829.1359486 1.494.5.3361559.4091014.5155493.9245913.506 1.454-.0260762.549526.3966253 1.0169105.946 1.046z"/><path id="Shape" d="m4.553 34.9c3.323 1.656 3.447 3.987 3.447 4.111.00303757.5522847.45321525.9975376 1.0055.9945s.9975376-.4532153.9945-1.0055c0-.148-.052-3.644-4.553-5.9-2.516-1.252-2.454-2.953-2.447-3.006.05191476-.5522847-.35371526-1.0420852-.906-1.094-.55228475-.0519148-1.04208523.3537153-1.094.906-.007.125-.241 3.094 3.553 4.994z"/><path id="Shape" d="m45 40c3.444 0 4.769-1.3 5.894-3.553.1630317-.319984.1419628-.7028178-.055198-1.0029789-.1971608-.3001612-.5401342-.471552-.8985495-.4490237-.3584154.0225284-.6772285.2355161-.8352525.5580026-.834 1.663-1.511 2.447-4.105 2.447-1.1014686-.0571465-2.1754613.355732-2.955 1.136-.7084202.8033905-1.0823504 1.8475326-1.045 2.918.0287202.5310903.4681342.946776 1 .946h.055c.2651781-.0141974.5138193-.1332882.6910948-.3310113.1772754-.1977231.2686251-.4578391.2539052-.7229887-.0055663-.5216665.1712891-1.0288876.5-1.434.4074686-.3711173.9506585-.5565261 1.5-.512z"/><path id="Shape" d="m56.549 33.1c-4.501 2.256-4.549 5.752-4.549 5.9 0 .5522847.4477153 1 1 1s1-.4477153 1-1c0-.024.093-2.429 3.447-4.1 3.794-1.9 3.56-4.864 3.548-4.989-.0517733-.5401249-.5282839-.9381829-1.069-.893-.5438651.0436523-.9542719.5121188-.926 1.057 0 .072.065 1.773-2.451 3.025z"/></g></g></g></svg>
