<svg height="180px" viewBox="0 0 512 512.02884" width="180px" xmlns="http://www.w3.org/2000/svg"><path d="m332.792969 391.320312v22.527344c0 11.785156-9.554688 21.335938-21.335938 21.335938h-128c-5.65625 0-11.082031-2.25-15.082031-6.25-4.003906-4-6.25-9.425782-6.25-15.085938v-26.28125zm0 0" fill="#ad1457"/><path d="m315.726562 392.515625c65.976563 0 119.464844-53.488281 119.464844-119.46875v-48.722656l-.769531-52.652344c-8.285156-92.363281-85.695313-163.136719-178.429687-163.136719-92.738282 0-170.144532 70.773438-178.433594 163.136719l-.765625 52.652344v48.722656c0 65.980469 53.484375 119.46875 119.464843 119.46875zm0 0" fill="#ad1457"/><path d="m292.964844 392.515625c59.683594 0 108.09375-53.503906 108.09375-119.46875v-48.722656l-.691406-52.652344c-2.980469-41.039063-19.429688-79.945313-46.789063-110.675781-29-33.023438-70.707031-52.113282-114.652344-52.480469-84.695312 0-154.179687 71.679687-161.441406 163.15625l-.691406 52.652344v48.722656c0 65.964844 48.40625 119.46875 108.089843 119.46875zm0 0" fill="#e91e63"/><g fill="#ad1457"><path d="m196.257812 435.183594s-7.601562 53.886718 59.734376 42.664062c102.398437-17.066406 102.398437 25.601563 102.398437 25.601563 34.132813-17.066407 34.132813-51.199219 8.535156-59.734375-19.472656-5.347656-39.542969-8.214844-59.734375-8.53125"/><path d="m93.859375 238.914062-82.476563-70.441406c-2.835937-2.554687-3.628906-6.675781-1.949218-10.101562 1.683594-3.425782 5.433594-5.316406 9.1875-4.636719l83.769531 25.449219"/><path d="m418.125 238.914062 82.472656-70.441406c2.835938-2.554687 3.632813-6.675781 1.953125-10.101562-1.683593-3.425782-5.433593-5.316406-9.1875-4.636719l-83.773437 25.449219"/></g><path d="m291.097656 318.761719-35.105468 39.621093-35.105469-39.621093-35.109375 39.621093c-61.4375-23.773437-35.113282-110.933593-35.113282-110.933593l35.113282 39.621093 35.109375-39.621093 35.105469 39.621093 35.105468-39.621093 35.105469 39.621093 35.113281-39.621093s26.328125 87.160156-35.113281 110.933593zm0 0" fill="#4527a0"/><path d="m238.753906 165.613281c-1.621094 23.992188-19.71875 43.621094-43.5 47.179688-23.777344 3.5625-46.832031-9.902344-55.414062-32.363281-8.578125-22.460938-.371094-47.867188 19.726562-61.066407l29.523438 17.238281 20.308594 11.859376zm0 0" fill="#f5f5f5"/><path d="m213.324219 162.117188c0 10.351562-6.238281 19.6875-15.804688 23.648437-9.5625 3.964844-20.574219 1.773437-27.898437-5.546875-7.320313-7.324219-9.511719-18.332031-5.546875-27.898438 3.960937-9.566406 13.296875-15.804687 23.652343-15.804687.453126-.015625.910157.015625 1.363282.085937l20.308594 11.859376c2.550781 4.097656 3.910156 8.828124 3.925781 13.65625zm0 0" fill="#2c3e50"/><path d="m196.257812 162.117188c0 4.710937-3.820312 8.53125-8.53125 8.53125-4.714843 0-8.535156-3.820313-8.535156-8.53125 0-4.714844 3.820313-8.535157 8.535156-8.535157 4.710938 0 8.53125 3.820313 8.53125 8.535157zm0 0" fill="#fff"/><path d="m273.058594 165.613281c1.621094 23.992188 19.71875 43.621094 43.5 47.179688 23.777344 3.5625 46.832031-9.902344 55.410156-32.363281 8.582031-22.460938.375-47.867188-19.722656-61.066407l-29.523438 17.238281-20.308594 11.859376zm0 0" fill="#f5f5f5"/><path d="m298.488281 162.117188c0 14.136718 11.460938 25.597656 25.597657 25.597656 14.140624 0 25.601562-11.460938 25.601562-25.597656 0-14.140626-11.460938-25.601563-25.601562-25.601563-.457032-.015625-.914063.015625-1.363282.085937l-20.308594 11.859376c-2.550781 4.097656-3.910156 8.828124-3.925781 13.65625zm0 0" fill="#2c3e50"/><path d="m332.621094 162.117188c0 4.710937-3.820313 8.53125-8.535156 8.53125-4.710938 0-8.53125-3.820313-8.53125-8.53125 0-4.714844 3.820312-8.535157 8.53125-8.535157 4.714843 0 8.535156 3.820313 8.535156 8.535157zm0 0" fill="#fff"/><path d="m491.84375 145.332031c-.316406.058594-.648438.144531-.964844.238281l-49.320312 14.984376c-13.386719-92.179688-92.40625-160.554688-185.550782-160.554688-93.144531 0-172.164062 68.375-185.546874 160.554688l-49.359376-14.984376c-.316406-.09375-.648437-.179687-.964843-.238281-7.550781-1.375-15.09375 2.460938-18.425781 9.375-3.335938 6.914063-1.6445318 15.207031 4.132812 20.257813l62.414062 53.308594v44.773437c.09375 54.183594 34.261719 102.445313 85.332032 120.535156v20.265625c0 16.496094 13.375 29.867188 29.867187 29.867188h4.15625c.429688 11.617187 5.140625 22.667968 13.226563 31.019531 12.175781 11.859375 31.179687 15.734375 56.550781 11.527344 55.601563-9.242188 77.40625.121093 85.46875 6.546875 3.632813 2.496094 6.144531 6.316406 7 10.640625-.015625 2.964843 1.507813 5.726562 4.023437 7.292969 2.519532 1.566406 5.671876 1.710937 8.324219.386718 20.640625-10.324218 32.679688-27.835937 31.410157-45.703125-.988282-13.960937-10.5625-25.832031-23.996094-29.757812-10.824219-2.960938-21.914063-4.84375-33.109375-5.621094 3.140625-4.820313 4.8125-10.445313 4.8125-16.199219v-15.359375c59.558593-12.242187 102.332031-64.632812 102.402343-125.441406v-44.773437l62.582032-53.460938c5.691406-5.105469 7.289062-13.375 3.914062-20.234375-3.375-6.863281-10.902344-10.640625-18.421875-9.246094zm-79.257812 87.089844c-3.585938 3.0625-4.011719 8.453125-.945313 12.039063 3.0625 3.585937 8.453125 4.011718 12.039063.949218l2.996093-2.5625v30.199219c-.070312 61.246094-49.707031 110.875-110.949219 110.933594-4.714843 0-8.535156 3.820312-8.535156 8.535156 0 4.710937 3.820313 8.53125 8.535156 8.53125 2.882813 0 5.699219-.246094 8.53125-.433594v13.234375c0 7.070313-5.730468 12.800782-12.800781 12.800782h-38.398437c-.179688 0-.324219.085937-.503906.101562-4.453126-.101562-7.40625-.101562-7.980469-.101562h-.050781c-4.710938-.015626-8.542969 3.796874-8.558594 8.507812-.011719 4.714844 3.796875 8.546875 8.507812 8.558594 21.335938.128906 80.90625 1.816406 99.753906 8.089844 6.839844 1.816406 11.789063 7.738281 12.367188 14.789062-.128906 9.769531-5.203125 18.804688-13.476562 24.003906-2.222657-3.925781-5.140626-7.417968-8.609376-10.308594-18.003906-15.25-51.625-18.910156-99.914062-10.855468-19.628906 3.261718-33.664062.972656-41.753906-6.824219-4.859375-5.132813-7.714844-11.835937-8.046875-18.894531h17.066406c4.710937 0 8.53125-3.820313 8.53125-8.53125 0-4.714844-3.820313-8.535156-8.53125-8.535156h-38.402344c-7.066406 0-12.800781-5.730469-12.800781-12.800782v-15.359375c8.429688 1.707031 17.003906 2.566407 25.601562 2.558594 4.714844 0 8.535157-3.820313 8.535157-8.53125 0-4.714844-3.820313-8.535156-8.535157-8.535156-61.238281-.070313-110.863281-49.695313-110.933593-110.933594v-30.199219l2.996093 2.5625c3.585938 3.0625 8.976563 2.636719 12.039063-.949218 3.0625-3.585938 2.640625-8.976563-.945313-12.039063l-82.210937-70.195313 82.703125 25.121094c4.511719 1.371094 9.28125-1.171875 10.652344-5.683594 1.371094-4.507812-1.175782-9.277343-5.683594-10.648437l-17.921875-5.4375c10.960937-84.988281 83.328125-148.621094 169.019531-148.621094 85.695313 0 158.0625 63.632813 169.019532 148.621094l-17.917969 5.445313c-2.917969.886718-5.140625 3.265624-5.832031 6.234374-.6875 2.96875.257812 6.082032 2.484374 8.167969 2.226563 2.082031 5.394532 2.820313 8.3125 1.929688l82.988282-25.367188zm0 0"/><path d="m187.726562 221.847656c31.363282-.082031 57.347657-24.363281 59.550782-55.652344.21875-3.238281-1.417969-6.316406-4.222656-7.945312l-79.1875-46.25c-2.804688-1.640625-6.292969-1.546875-9.003907.238281-22.027343 14.515625-31.925781 41.761719-24.347656 67.03125 7.574219 25.269531 30.828125 42.578125 57.210937 42.578125zm8.53125-59.730468c0 4.710937-3.820312 8.53125-8.53125 8.53125-4.714843 0-8.535156-3.820313-8.535156-8.53125 0-4.714844 3.820313-8.535157 8.535156-8.535157 4.710938 0 8.53125 3.820313 8.53125 8.535157zm-36.113281-32.53125 16.425781 9.59375c-11.40625 5.519531-17.054687 18.554687-13.289062 30.652343 3.769531 12.097657 15.820312 19.621094 28.34375 17.6875 12.523438-1.929687 21.75-12.730469 21.699219-25.402343 0-.539063-.128907-1.042969-.160157-1.570313l16.425782 9.589844c-3.496094 18.4375-18.632813 32.429687-37.289063 34.464843-18.65625 2.039063-36.453125-8.355468-43.847656-25.601562-7.394531-17.25-2.648437-37.308594 11.691406-49.414062zm0 0"/><path d="m356.949219 112.238281c-2.710938-1.785156-6.199219-1.878906-9.003907-.238281l-79.1875 46.25c-2.800781 1.632812-4.433593 4.710938-4.214843 7.945312 1.894531 27.980469 23.007812 50.875 50.746093 55.03125 27.738282 4.15625 54.628907-11.546874 64.644532-37.746093s.453125-55.835938-22.984375-71.242188zm-24.328125 49.878907c0 4.710937-3.820313 8.53125-8.535156 8.53125-4.710938 0-8.53125-3.820313-8.53125-8.53125 0-4.714844 3.820312-8.535157 8.53125-8.535157 4.714843 0 8.535156 3.820313 8.535156 8.535157zm-8.535156 42.664062c-20.441407-.054688-37.984376-14.574219-41.863282-34.644531l16.433594-9.589844c0 .527344-.160156 1.03125-.160156 1.570313-.050782 12.671874 9.175781 23.472656 21.699218 25.402343 12.523438 1.933594 24.574219-5.589843 28.34375-17.6875 3.765626-12.097656-1.882812-25.132812-13.289062-30.652343l16.433594-9.59375c13.640625 11.578124 18.609375 30.433593 12.445312 47.230468-6.164062 16.792969-22.152344 27.960938-40.042968 27.964844zm0 0"/><path d="m369.1875 244.417969c-.214844-.519531-.484375-1.019531-.804688-1.484375-.296874-.496094-.644531-.957032-1.039062-1.382813-.144531-.144531-.207031-.339843-.367188-.484375-.164062-.144531-.546874-.28125-.804687-.46875-.480469-.351562-.996094-.652344-1.542969-.898437-.480468-.191407-.976562-.347657-1.484375-.460938-.535156-.125-1.082031-.195312-1.628906-.210937-.886719.078125-1.769531.164062-2.65625.253906-.203125.0625-.347656.214844-.542969.292969-.542968.226562-1.058594.511719-1.539062.851562-.472656.289063-.917969.625-1.328125 1-.179688.121094-.351563.25-.515625.390625l-28.722656 32.425782-28.730469-32.425782c-.121094-.136718-.28125-.1875-.410157-.316406-.128906-.125-.179687-.289062-.316406-.410156-.828125-.484375-1.660156-.964844-2.492187-1.449219-.503907-.183594-1.027344-.316406-1.558594-.402344-1.050781-.28125-2.160156-.28125-3.210937 0-.53125.082031-1.054688.21875-1.5625.402344-.515626.238281-1.003907.523437-1.464844.851563-.355469.175781-.699219.375-1.023438.597656-.136718.121094-.1875.292968-.308594.410156-.121093.121094-.296874.179688-.417968.316406l-28.722656 32.382813-28.722657-32.425781c-.121093-.136719-.292969-.1875-.417969-.316407-.128906-.125-.171874-.289062-.308593-.410156-.328125-.222656-.671875-.421875-1.03125-.59375-.457031-.335937-.949219-.625-1.46875-.855469-.507813-.183594-1.03125-.320312-1.5625-.402344-1.046875-.28125-2.152344-.28125-3.199219 0-.53125.082032-1.054688.21875-1.5625.402344-.519531.238282-1.011719.523438-1.476562.855469-.351563.171875-.691407.371094-1.015626.59375-.136718.121094-.1875.292969-.316406.410156-.125.121094-.289062.179688-.40625.316407l-28.734375 32.425781-28.722656-32.425781c-2.050781-2.3125-5.191406-3.332032-8.210937-2.671876-3.019532.664063-5.441407 2.90625-6.339844 5.863282-9.898438 32.769531-14.238282 100.292968 40.195312 121.363281 3.328125 1.285156 7.105469.367187 9.46875-2.304687l28.726563-32.425782 28.722656 32.425782c1.664063 1.757812 3.976563 2.757812 6.398437 2.757812 2.421876 0 4.738282-1 6.402344-2.757812l28.722656-32.425782 28.722657 32.425782c.09375.101562.230469.136718.324219.230468.648437.667969 1.402343 1.222656 2.234374 1.636719.257813.128906.496094.257813.761719.359375.972657.40625 2.015625.628906 3.070313.648438 1.03125-.003907 2.054687-.195313 3.019531-.5625h.0625c54.433594-21.070313 50.089844-88.59375 40.191406-121.363282-.101562-.203125-.257812-.347656-.332031-.554687zm-40.894531 103.460937-30.8125-34.773437c-.128907-.109375-.269531-.214844-.410157-.308594-.128906-.128906-.179687-.296875-.316406-.417969-.324218-.222656-.667968-.421875-1.023437-.597656-.460938-.332031-.953125-.617188-1.46875-.851562-.507813-.1875-1.035157-.320313-1.570313-.402344-1.042968-.285156-2.144531-.285156-3.191406 0-1.109375.128906-2.160156.566406-3.035156 1.261718-.359375.167969-.699219.367188-1.023438.589844-.136718.121094-.1875.289063-.308594.417969-.121093.128906-.296874.171875-.417968.308594l-28.722656 32.410156-28.722657-32.429687c-1.667969-1.753907-3.980469-2.75-6.402343-2.75-2.417969 0-4.734376.996093-6.398438 2.75l-30.976562 34.988281c-33.648438-17.066407-31.984376-59.28125-28.160157-82.441407l24.019531 27.109376c1.667969 1.753906 3.984376 2.746093 6.402344 2.746093 2.417969 0 4.730469-.992187 6.398438-2.746093l28.722656-32.425782 28.726562 32.425782c1.617188 1.839843 3.949219 2.890624 6.398438 2.890624s4.78125-1.050781 6.398438-2.890624l28.726562-32.425782 28.722656 32.425782c1.617188 1.839843 3.949219 2.890624 6.398438 2.890624 2.449218 0 4.78125-1.050781 6.398437-2.890624l24.007813-27.09375c3.769531 23.117187 5.261718 65.144531-28.359375 82.230468zm0 0"/></svg>
